  0
SECTION
  2
HEADER
  9
$ACADVER
  1
AC1015
  9
$ACADMAINTVER
 70
     6
  9
$DWGCODEPAGE
  3
ANSI_1252
  9
$INSBASE
 10
0.0
 20
0.0
 30
0.0
  9
$EXTMIN
 10
-25.5
 20
-24.2961038961
 30
0.0
  9
$EXTMAX
 10
135.7137662338
 20
38.4
 30
0.0
  9
$LIMMIN
 10
0.0
 20
0.0
  9
$LIMMAX
 10
420.0
 20
297.0
  9
$ORTHOMODE
 70
     0
  9
$REGENMODE
 70
     1
  9
$FILLMODE
 70
     1
  9
$QTEXTMODE
 70
     0
  9
$MIRRTEXT
 70
     1
  9
$LTSCALE
 40
1.0
  9
$ATTMODE
 70
     1
  9
$TEXTSIZE
 40
3.5
  9
$TRACEWID
 40
1.0
  9
$TEXTSTYLE
  7
Standard
  9
$CLAYER
  8
0
  9
$CELTYPE
  6
ByLayer
  9
$CECOLOR
 62
   256
  9
$CELTSCALE
 40
1.0
  9
$DISPSILH
 70
     0
  9
$DIMSCALE
 40
1.0
  9
$DIMASZ
 40
3.302
  9
$DIMEXO
 40
1.0
  9
$DIMDLI
 40
3.75
  9
$DIMRND
 40
0.0
  9
$DIMDLE
 40
0.0
  9
$DIMEXE
 40
1.0
  9
$DIMTP
 40
0.0
  9
$DIMTM
 40
0.0
  9
$DIMTXT
 40
3.5
  9
$DIMCEN
 40
2.5
  9
$DIMTSZ
 40
0.0
  9
$DIMTOL
 70
     0
  9
$DIMLIM
 70
     0
  9
$DIMTIH
 70
     1
  9
$DIMTOH
 70
     1
  9
$DIMSE1
 70
     0
  9
$DIMSE2
 70
     0
  9
$DIMTAD
 70
     1
  9
$DIMZIN
 70
     0
  9
$DIMBLK
  1

  9
$DIMASO
 70
     1
  9
$DIMSHO
 70
     1
  9
$DIMPOST
  1

  9
$DIMAPOST
  1

  9
$DIMALT
 70
     0
  9
$DIMALTD
 70
     3
  9
$DIMALTF
 40
0.0393700787
  9
$DIMLFAC
 40
1.0
  9
$DIMTOFL
 70
     1
  9
$DIMTVP
 40
0.0
  9
$DIMTIX
 70
     0
  9
$DIMSOXD
 70
     0
  9
$DIMSAH
 70
     0
  9
$DIMBLK1
  1

  9
$DIMBLK2
  1

  9
$DIMSTYLE
  2
ISO-25
  9
$DIMCLRD
 70
     0
  9
$DIMCLRE
 70
     0
  9
$DIMCLRT
 70
     0
  9
$DIMTFAC
 40
1.0
  9
$DIMGAP
 40
1.524
  9
$DIMJUST
 70
     0
  9
$DIMSD1
 70
     0
  9
$DIMSD2
 70
     0
  9
$DIMTOLJ
 70
     0
  9
$DIMTZIN
 70
     0
  9
$DIMALTZ
 70
     0
  9
$DIMALTTZ
 70
     0
  9
$DIMUPT
 70
     0
  9
$DIMDEC
 70
     2
  9
$DIMTDEC
 70
     2
  9
$DIMALTU
 70
     2
  9
$DIMALTTD
 70
     3
  9
$DIMTXSTY
  7
Standard
  9
$DIMAUNIT
 70
     0
  9
$DIMADEC
 70
     2
  9
$DIMALTRND
 40
0.0
  9
$DIMAZIN
 70
     0
  9
$DIMDSEP
 70
    44
  9
$DIMATFIT
 70
     3
  9
$DIMFRAC
 70
     0
  9
$DIMLDRBLK
  1

  9
$DIMLUNIT
 70
     2
  9
$DIMLWD
 70
    -2
  9
$DIMLWE
 70
    -2
  9
$DIMTMOVE
 70
     0
  9
$LUNITS
 70
     2
  9
$LUPREC
 70
     2
  9
$SKETCHINC
 40
1.0
  9
$FILLETRAD
 40
10.0
  9
$AUNITS
 70
     0
  9
$AUPREC
 70
     2
  9
$MENU
  1
.
  9
$ELEVATION
 40
0.0
  9
$PELEVATION
 40
0.0
  9
$THICKNESS
 40
0.0
  9
$LIMCHECK
 70
     0
  9
$CHAMFERA
 40
0.0
  9
$CHAMFERB
 40
0.0
  9
$CHAMFERC
 40
0.0
  9
$CHAMFERD
 40
0.0
  9
$SKPOLY
 70
     0
  9
$TDCREATE
 40
2458676.846991111
  9
$TDUCREATE
 40
2458676.763657778
  9
$TDUPDATE
 40
2458676.847015903
  9
$TDUUPDATE
 40
2458676.763682569
  9
$TDINDWG
 40
0.0000000116
  9
$TDUSRTIMER
 40
0.0000000116
  9
$USRTIMER
 70
     1
  9
$ANGBASE
 50
0.0
  9
$ANGDIR
 70
     0
  9
$PDMODE
 70
     0
  9
$PDSIZE
 40
-1.0
  9
$PLINEWID
 40
0.0
  9
$SPLFRAME
 70
     0
  9
$SPLINETYPE
 70
     6
  9
$SPLINESEGS
 70
     8
  9
$HANDSEED
  5
11A
  9
$SURFTAB1
 70
     6
  9
$SURFTAB2
 70
     6
  9
$SURFTYPE
 70
     6
  9
$SURFU
 70
     6
  9
$SURFV
 70
     6
  9
$UCSBASE
  2

  9
$UCSNAME
  2

  9
$UCSORG
 10
0.0
 20
0.0
 30
0.0
  9
$UCSXDIR
 10
1.0
 20
0.0
 30
0.0
  9
$UCSYDIR
 10
0.0
 20
1.0
 30
0.0
  9
$UCSORTHOREF
  2

  9
$UCSORTHOVIEW
 70
     0
  9
$UCSORGTOP
 10
0.0
 20
0.0
 30
0.0
  9
$UCSORGBOTTOM
 10
0.0
 20
0.0
 30
0.0
  9
$UCSORGLEFT
 10
0.0
 20
0.0
 30
0.0
  9
$UCSORGRIGHT
 10
0.0
 20
0.0
 30
0.0
  9
$UCSORGFRONT
 10
0.0
 20
0.0
 30
0.0
  9
$UCSORGBACK
 10
0.0
 20
0.0
 30
0.0
  9
$PUCSBASE
  2

  9
$PUCSNAME
  2

  9
$PUCSORG
 10
0.0
 20
0.0
 30
0.0
  9
$PUCSXDIR
 10
1.0
 20
0.0
 30
0.0
  9
$PUCSYDIR
 10
0.0
 20
1.0
 30
0.0
  9
$PUCSORTHOREF
  2

  9
$PUCSORTHOVIEW
 70
     0
  9
$PUCSORGTOP
 10
0.0
 20
0.0
 30
0.0
  9
$PUCSORGBOTTOM
 10
0.0
 20
0.0
 30
0.0
  9
$PUCSORGLEFT
 10
0.0
 20
0.0
 30
0.0
  9
$PUCSORGRIGHT
 10
0.0
 20
0.0
 30
0.0
  9
$PUCSORGFRONT
 10
0.0
 20
0.0
 30
0.0
  9
$PUCSORGBACK
 10
0.0
 20
0.0
 30
0.0
  9
$USERI1
 70
     0
  9
$USERI2
 70
     0
  9
$USERI3
 70
     0
  9
$USERI4
 70
     0
  9
$USERI5
 70
     0
  9
$USERR1
 40
0.0
  9
$USERR2
 40
0.0
  9
$USERR3
 40
0.0
  9
$USERR4
 40
0.0
  9
$USERR5
 40
0.0
  9
$WORLDVIEW
 70
     1
  9
$SHADEDGE
 70
     3
  9
$SHADEDIF
 70
    70
  9
$TILEMODE
 70
     1
  9
$MAXACTVP
 70
    64
  9
$PINSBASE
 10
0.0
 20
0.0
 30
0.0
  9
$PLIMCHECK
 70
     0
  9
$PEXTMIN
 10
1.0000000000E+20
 20
1.0000000000E+20
 30
1.0000000000E+20
  9
$PEXTMAX
 10
-1.0000000000E+20
 20
-1.0000000000E+20
 30
-1.0000000000E+20
  9
$PLIMMIN
 10
0.0
 20
0.0
  9
$PLIMMAX
 10
420.0
 20
297.0
  9
$UNITMODE
 70
     0
  9
$VISRETAIN
 70
     1
  9
$PLINEGEN
 70
     0
  9
$PSLTSCALE
 70
     1
  9
$TREEDEPTH
 70
  3020
  9
$CMLSTYLE
  2
Standard
  9
$CMLJUST
 70
     0
  9
$CMLSCALE
 40
20.0
  9
$PROXYGRAPHICS
 70
     1
  9
$MEASUREMENT
 70
     1
  9
$CELWEIGHT
370
    -1
  9
$ENDCAPS
280
     0
  9
$JOINSTYLE
280
     0
  9
$LWDISPLAY
290
     1
  9
$INSUNITS
 70
     4
  9
$HYPERLINKBASE
  1

  9
$STYLESHEET
  1

  9
$XEDIT
290
     1
  9
$CEPSNTYPE
380
     0
  9
$PSTYLEMODE
290
     1
  9
$FINGERPRINTGUID
  2
{A5424369-B48C-4765-8CDF-8BB3D38136EF}
  9
$VERSIONGUID
  2
{FAEB1C32-E019-11D5-929B-00C0DF256EC4}
  9
$EXTNAMES
290
     1
  9
$PSVPSCALE
 40
0.0
  9
$OLESTARTUP
290
     0
  0
ENDSEC
  0
SECTION
  2
CLASSES
  0
CLASS
  1
ACDBDICTIONARYWDFLT
  2
AcDbDictionaryWithDefault
  3
ObjectDBX Classes
 90
        0
280
     0
281
     0
  0
CLASS
  1
VISUALSTYLE
  2
AcDbVisualStyle
  3
ObjectDBX Classes
 90
     4095
280
     0
281
     0
  0
CLASS
  1
MATERIAL
  2
AcDbMaterial
  3
ObjectDBX Classes
 90
     1153
280
     0
281
     0
  0
CLASS
  1
SCALE
  2
AcDbScale
  3
ObjectDBX Classes
 90
     1153
280
     0
281
     0
  0
CLASS
  1
SUN
  2
AcDbSun
  3
SCENEOE
 90
     1153
280
     0
281
     0
  0
CLASS
  1
ACDBPLACEHOLDER
  2
AcDbPlaceHolder
  3
ObjectDBX Classes
 90
        0
280
     0
281
     0
  0
CLASS
  1
LAYOUT
  2
AcDbLayout
  3
ObjectDBX Classes
 90
        0
280
     0
281
     0
  0
ENDSEC
  0
SECTION
  2
TABLES
  0
TABLE
  2
VPORT
  5
8
330
0
100
AcDbSymbolTable
 70
     1
  0
VPORT
  5
29
330
8
100
AcDbSymbolTableRecord
100
AcDbViewportTableRecord
  2
*Active
 70
     0
 10
0.0
 20
0.0
 11
1.0
 21
1.0
 12
55.1068831169
 22
7.0519480519
 13
0.0
 23
0.0
 14
10.0
 24
10.0
 15
10.0
 25
10.0
 16
0.0
 26
0.0
 36
1.0
 17
0.0
 27
0.0
 37
0.0
 40
63.950025974
 41
2.5713522247
 42
50.0
 43
0.0
 44
0.0
 50
0.0
 51
0.0
 71
     0
 72
   100
 73
     1
 74
     3
 75
     0
 76
     0
 77
     0
 78
     0
281
     0
 65
     1
110
0.0
120
0.0
130
0.0
111
1.0
121
0.0
131
0.0
112
0.0
122
1.0
132
0.0
 79
     0
146
0.0
  0
ENDTAB
  0
TABLE
  2
LTYPE
  5
5
330
0
100
AcDbSymbolTable
 70
     6
  0
LTYPE
  5
14
330
5
100
AcDbSymbolTableRecord
100
AcDbLinetypeTableRecord
  2
ByBlock
 70
     0
  3

 72
    65
 73
     0
 40
0.0
  0
LTYPE
  5
15
330
5
100
AcDbSymbolTableRecord
100
AcDbLinetypeTableRecord
  2
ByLayer
 70
     0
  3

 72
    65
 73
     0
 40
0.0
  0
LTYPE
  5
16
330
5
100
AcDbSymbolTableRecord
100
AcDbLinetypeTableRecord
  2
Continuous
 70
     0
  3
Solid line
 72
    65
 73
     0
 40
0.0
  0
LTYPE
  5
6A
330
5
100
AcDbSymbolTableRecord
100
AcDbLinetypeTableRecord
  2
HIDDEN
 70
     0
  3
Hidden __ __ __ __ __ __ __ __ __ __ __ __ __ __
 72
    65
 73
     2
 40
1.905
 49
1.27
 74
     0
 49
-0.635
 74
     0
  0
LTYPE
  5
6B
330
5
100
AcDbSymbolTableRecord
100
AcDbLinetypeTableRecord
  2
PHANTOM
 70
     0
  3
Phantom ______  __  __  ______  __  __  ______
 72
    65
 73
     6
 40
12.7
 49
6.35
 74
     0
 49
-1.27
 74
     0
 49
1.27
 74
     0
 49
-1.27
 74
     0
 49
1.27
 74
     0
 49
-1.27
 74
     0
  0
LTYPE
  5
6C
330
5
100
AcDbSymbolTableRecord
100
AcDbLinetypeTableRecord
  2
CENTER
 70
     0
  3
Center ____ _ ____ _ ____ _ ____ _ ____ _ ____
 72
    65
 73
     4
 40
10.16
 49
6.35
 74
     0
 49
-1.27
 74
     0
 49
1.27
 74
     0
 49
-1.27
 74
     0
  0
LTYPE
  5
6D
330
5
100
AcDbSymbolTableRecord
100
AcDbLinetypeTableRecord
  2
CENTERX2
 70
     0
  3
Center (2x) ________  __  ________  __  _____
 72
    65
 73
     4
 40
20.32
 49
12.7
 74
     0
 49
-2.54
 74
     0
 49
2.54
 74
     0
 49
-2.54
 74
     0
  0
LTYPE
  5
6E
330
5
100
AcDbSymbolTableRecord
100
AcDbLinetypeTableRecord
  2
DOT2
 70
     0
  3
Dot (.5x) ........................................
 72
    65
 73
     2
 40
0.635
 49
0.0
 74
     0
 49
-0.635
 74
     0
  0
ENDTAB
  0
TABLE
  2
LAYER
  5
2
330
0
100
AcDbSymbolTable
 70
     1
  0
LAYER
  5
10
330
2
100
AcDbSymbolTableRecord
100
AcDbLayerTableRecord
  2
0
 70
     0
 62
     7
  6
Continuous
370
    -3
390
F
  0
ENDTAB
  0
TABLE
  2
STYLE
  5
3
330
0
100
AcDbSymbolTable
 70
     1
  0
STYLE
  5
11
330
3
100
AcDbSymbolTableRecord
100
AcDbTextStyleTableRecord
  2
Standard
 70
     0
 40
0.0
 41
1.0
 50
0.0
 71
     0
 42
3.5
  3
txt
  4

  0
ENDTAB
  0
TABLE
  2
VIEW
  5
6
330
0
100
AcDbSymbolTable
 70
     0
  0
ENDTAB
  0
TABLE
  2
UCS
  5
7
330
0
100
AcDbSymbolTable
 70
     0
  0
ENDTAB
  0
TABLE
  2
APPID
  5
9
330
0
100
AcDbSymbolTable
 70
     1
  0
APPID
  5
12
330
9
100
AcDbSymbolTableRecord
100
AcDbRegAppTableRecord
  2
ACAD
 70
     0
  0
ENDTAB
  0
TABLE
  2
DIMSTYLE
  5
A
330
0
100
AcDbSymbolTable
 70
     1
100
AcDbDimStyleTable
  0
DIMSTYLE
105
27
330
A
100
AcDbSymbolTableRecord
100
AcDbDimStyleTableRecord
  2
ISO-25
 70
     0
 41
2.5
 42
0.625
 43
3.75
 44
1.25
 73
     0
 74
     0
 77
     1
 78
     8
140
2.5
141
2.5
143
0.0393700787
147
0.625
171
     3
172
     1
178
     0
271
     2
272
     2
274
     3
278
    44
283
     0
284
     8
340
11
  0
ENDTAB
  0
TABLE
  2
BLOCK_RECORD
  5
1
330
0
100
AcDbSymbolTable
 70
     1
  0
BLOCK_RECORD
  5
1F
330
1
100
AcDbSymbolTableRecord
100
AcDbBlockTableRecord
  2
*Model_Space
340
22
  0
BLOCK_RECORD
  5
1B
330
1
100
AcDbSymbolTableRecord
100
AcDbBlockTableRecord
  2
*Paper_Space
340
1E
  0
BLOCK_RECORD
  5
23
330
1
100
AcDbSymbolTableRecord
100
AcDbBlockTableRecord
  2
*Paper_Space0
340
26
  0
ENDTAB
  0
ENDSEC
  0
SECTION
  2
BLOCKS
  0
BLOCK
  5
20
330
1F
100
AcDbEntity
  8
0
100
AcDbBlockBegin
  2
*Model_Space
 70
     0
 10
0.0
 20
0.0
 30
0.0
  3
*Model_Space
  1
*Model_Space
  0
ENDBLK
  5
21
330
1F
100
AcDbEntity
  8
0
100
AcDbBlockEnd
  0
BLOCK
  5
1C
330
1B
100
AcDbEntity
 67
     1
  8
0
100
AcDbBlockBegin
  2
*Paper_Space
 70
     0
 10
0.0
 20
0.0
 30
0.0
  3
*Paper_Space
  1
*Paper_Space
  0
ENDBLK
  5
1D
330
1B
100
AcDbEntity
 67
     1
  8
0
100
AcDbBlockEnd
  0
BLOCK
  5
24
330
23
100
AcDbEntity
  8
0
100
AcDbBlockBegin
  2
*Paper_Space0
 70
     0
 10
0.0
 20
0.0
 30
0.0
  3
*Paper_Space0
  1
*Paper_Space0
  0
ENDBLK
  5
25
330
23
100
AcDbEntity
  8
0
100
AcDbBlockEnd
  0
ENDSEC
  0
SECTION
  2
ENTITIES
  0
ARC
  5
6F
330
1F
100
AcDbEntity
  8
0
  6
Continuous
 62
     7
370
    15
100
AcDbCircle
 10
0.0
 20
30.9
 30
0.0
 40
6.3
100
AcDbArc
 50
0.0
 51
180.0
  0
LINE
  5
70
330
1F
100
AcDbEntity
  8
0
  6
Continuous
 62
     7
370
    15
100
AcDbLine
 10
6.3
 20
29.4
 30
0.0
 11
6.3
 21
30.9
 31
0.0
  0
LINE
  5
71
330
1F
100
AcDbEntity
  8
0
  6
Continuous
 62
     7
370
    15
100
AcDbLine
 10
-6.3
 20
29.4
 30
0.0
 11
6.3
 21
29.4
 31
0.0
  0
LINE
  5
72
330
1F
100
AcDbEntity
  8
0
  6
Continuous
 62
     7
370
    15
100
AcDbLine
 10
-6.3
 20
30.9
 30
0.0
 11
-6.3
 21
29.4
 31
0.0
  0
ARC
  5
73
330
1F
100
AcDbEntity
  8
0
  6
Continuous
 62
     7
370
    15
100
AcDbCircle
 10
0.0
 20
30.9
 30
0.0
 40
7.5
100
AcDbArc
 50
0.0
 51
180.0
  0
LINE
  5
74
330
1F
100
AcDbEntity
  8
0
  6
Continuous
 62
     7
370
    15
100
AcDbLine
 10
-7.5
 20
28.2
 30
0.0
 11
-7.5
 21
30.9
 31
0.0
  0
LINE
  5
75
330
1F
100
AcDbEntity
  8
0
  6
Continuous
 62
     7
370
    15
100
AcDbLine
 10
-7.5
 20
28.2
 30
0.0
 11
7.5
 21
28.2
 31
0.0
  0
LINE
  5
76
330
1F
100
AcDbEntity
  8
0
  6
Continuous
 62
     7
370
    15
100
AcDbLine
 10
7.5
 20
28.2
 30
0.0
 11
7.5
 21
30.9
 31
0.0
  0
LINE
  5
77
330
1F
100
AcDbEntity
  8
0
  6
Continuous
 62
     7
370
    15
100
AcDbLine
 10
-7.5
 20
1.5
 30
0.0
 11
-7.5
 21
27.9
 31
0.0
  0
LINE
  5
78
330
1F
100
AcDbEntity
  8
0
  6
Continuous
 62
     7
370
    15
100
AcDbLine
 10
-7.5
 20
1.5
 30
0.0
 11
7.5
 21
1.5
 31
0.0
  0
LINE
  5
79
330
1F
100
AcDbEntity
  8
0
  6
Continuous
 62
     7
370
    15
100
AcDbLine
 10
7.5
 20
1.5
 30
0.0
 11
7.5
 21
27.9
 31
0.0
  0
LINE
  5
7A
330
1F
100
AcDbEntity
  8
0
  6
Continuous
 62
     7
370
    15
100
AcDbLine
 10
-7.5
 20
27.9
 30
0.0
 11
7.5
 21
27.9
 31
0.0
  0
LINE
  5
7B
330
1F
100
AcDbEntity
  8
0
  6
Continuous
 62
     7
370
    15
100
AcDbLine
 10
-7.5
 20
1.2
 30
0.0
 11
7.5
 21
1.2
 31
0.0
  0
LINE
  5
7C
330
1F
100
AcDbEntity
  8
0
  6
Continuous
 62
     7
370
    15
100
AcDbLine
 10
-7.5
 20
0.0
 30
0.0
 11
-7.5
 21
1.2
 31
0.0
  0
LINE
  5
7D
330
1F
100
AcDbEntity
  8
0
  6
Continuous
 62
     7
370
    15
100
AcDbLine
 10
-7.5
 20
0.0
 30
0.0
 11
7.5
 21
0.0
 31
0.0
  0
LINE
  5
7E
330
1F
100
AcDbEntity
  8
0
  6
Continuous
 62
     7
370
    15
100
AcDbLine
 10
7.5
 20
0.0
 30
0.0
 11
7.5
 21
1.2
 31
0.0
  0
LINE
  5
7F
330
1F
100
AcDbEntity
  8
0
  6
Continuous
 62
     7
370
    15
100
AcDbLine
 10
8.7
 20
1.2
 30
0.0
 11
23.7
 21
1.2
 31
0.0
  0
LINE
  5
80
330
1F
100
AcDbEntity
  8
0
  6
Continuous
 62
     7
370
    15
100
AcDbLine
 10
8.7
 20
0.0
 30
0.0
 11
8.7
 21
1.2
 31
0.0
  0
LINE
  5
81
330
1F
100
AcDbEntity
  8
0
  6
Continuous
 62
     7
370
    15
100
AcDbLine
 10
8.7
 20
0.0
 30
0.0
 11
23.7
 21
0.0
 31
0.0
  0
LINE
  5
82
330
1F
100
AcDbEntity
  8
0
  6
Continuous
 62
     7
370
    15
100
AcDbLine
 10
23.7
 20
0.0
 30
0.0
 11
23.7
 21
1.2
 31
0.0
  0
LINE
  5
83
330
1F
100
AcDbEntity
  8
0
  6
Continuous
 62
     7
370
    15
100
AcDbLine
 10
8.7
 20
1.5
 30
0.0
 11
8.7
 21
27.9
 31
0.0
  0
LINE
  5
84
330
1F
100
AcDbEntity
  8
0
  6
Continuous
 62
     7
370
    15
100
AcDbLine
 10
8.7
 20
1.5
 30
0.0
 11
23.7
 21
1.5
 31
0.0
  0
LINE
  5
85
330
1F
100
AcDbEntity
  8
0
  6
Continuous
 62
     7
370
    15
100
AcDbLine
 10
23.7
 20
1.5
 30
0.0
 11
23.7
 21
27.9
 31
0.0
  0
LINE
  5
86
330
1F
100
AcDbEntity
  8
0
  6
Continuous
 62
     7
370
    15
100
AcDbLine
 10
8.7
 20
27.9
 30
0.0
 11
23.7
 21
27.9
 31
0.0
  0
ARC
  5
87
330
1F
100
AcDbEntity
  8
0
  6
Continuous
 62
     7
370
    15
100
AcDbCircle
 10
16.2
 20
30.9
 30
0.0
 40
6.300000000000001
100
AcDbArc
 50
0.0
 51
180.0
  0
LINE
  5
88
330
1F
100
AcDbEntity
  8
0
  6
Continuous
 62
     7
370
    15
100
AcDbLine
 10
22.5
 20
29.4
 30
0.0
 11
22.5
 21
30.9
 31
0.0
  0
LINE
  5
89
330
1F
100
AcDbEntity
  8
0
  6
Continuous
 62
     7
370
    15
100
AcDbLine
 10
9.9
 20
29.4
 30
0.0
 11
22.5
 21
29.4
 31
0.0
  0
LINE
  5
8A
330
1F
100
AcDbEntity
  8
0
  6
Continuous
 62
     7
370
    15
100
AcDbLine
 10
9.9
 20
30.9
 30
0.0
 11
9.9
 21
29.4
 31
0.0
  0
ARC
  5
8B
330
1F
100
AcDbEntity
  8
0
  6
Continuous
 62
     7
370
    15
100
AcDbCircle
 10
16.2
 20
30.9
 30
0.0
 40
7.5
100
AcDbArc
 50
0.0
 51
180.0
  0
LINE
  5
8C
330
1F
100
AcDbEntity
  8
0
  6
Continuous
 62
     7
370
    15
100
AcDbLine
 10
8.7
 20
28.2
 30
0.0
 11
8.7
 21
30.9
 31
0.0
  0
LINE
  5
8D
330
1F
100
AcDbEntity
  8
0
  6
Continuous
 62
     7
370
    15
100
AcDbLine
 10
8.7
 20
28.2
 30
0.0
 11
23.7
 21
28.2
 31
0.0
  0
LINE
  5
8E
330
1F
100
AcDbEntity
  8
0
  6
Continuous
 62
     7
370
    15
100
AcDbLine
 10
23.7
 20
28.2
 30
0.0
 11
23.7
 21
30.9
 31
0.0
  0
LINE
  5
8F
330
1F
100
AcDbEntity
  8
0
  6
Continuous
 62
     7
370
    15
100
AcDbLine
 10
24.9
 20
1.5
 30
0.0
 11
24.9
 21
27.9
 31
0.0
  0
LINE
  5
90
330
1F
100
AcDbEntity
  8
0
  6
Continuous
 62
     7
370
    15
100
AcDbLine
 10
24.9
 20
1.5
 30
0.0
 11
39.9
 21
1.5
 31
0.0
  0
LINE
  5
91
330
1F
100
AcDbEntity
  8
0
  6
Continuous
 62
     7
370
    15
100
AcDbLine
 10
39.9
 20
1.5
 30
0.0
 11
39.9
 21
27.9
 31
0.0
  0
LINE
  5
92
330
1F
100
AcDbEntity
  8
0
  6
Continuous
 62
     7
370
    15
100
AcDbLine
 10
24.9
 20
27.9
 30
0.0
 11
39.9
 21
27.9
 31
0.0
  0
ARC
  5
93
330
1F
100
AcDbEntity
  8
0
  6
Continuous
 62
     7
370
    15
100
AcDbCircle
 10
32.4
 20
30.9
 30
0.0
 40
6.300000000000001
100
AcDbArc
 50
0.0
 51
180.0
  0
LINE
  5
94
330
1F
100
AcDbEntity
  8
0
  6
Continuous
 62
     7
370
    15
100
AcDbLine
 10
38.7
 20
29.4
 30
0.0
 11
38.7
 21
30.9
 31
0.0
  0
LINE
  5
95
330
1F
100
AcDbEntity
  8
0
  6
Continuous
 62
     7
370
    15
100
AcDbLine
 10
26.1
 20
29.4
 30
0.0
 11
38.7
 21
29.4
 31
0.0
  0
LINE
  5
96
330
1F
100
AcDbEntity
  8
0
  6
Continuous
 62
     7
370
    15
100
AcDbLine
 10
26.1
 20
30.9
 30
0.0
 11
26.1
 21
29.4
 31
0.0
  0
ARC
  5
97
330
1F
100
AcDbEntity
  8
0
  6
Continuous
 62
     7
370
    15
100
AcDbCircle
 10
32.4
 20
30.9
 30
0.0
 40
7.500000000000004
100
AcDbArc
 50
0.0
 51
180.0
  0
LINE
  5
98
330
1F
100
AcDbEntity
  8
0
  6
Continuous
 62
     7
370
    15
100
AcDbLine
 10
24.9
 20
28.2
 30
0.0
 11
24.9
 21
30.9
 31
0.0
  0
LINE
  5
99
330
1F
100
AcDbEntity
  8
0
  6
Continuous
 62
     7
370
    15
100
AcDbLine
 10
24.9
 20
28.2
 30
0.0
 11
39.9
 21
28.2
 31
0.0
  0
LINE
  5
9A
330
1F
100
AcDbEntity
  8
0
  6
Continuous
 62
     7
370
    15
100
AcDbLine
 10
39.9
 20
28.2
 30
0.0
 11
39.9
 21
30.9
 31
0.0
  0
LINE
  5
9B
330
1F
100
AcDbEntity
  8
0
  6
Continuous
 62
     7
370
    15
100
AcDbLine
 10
24.9
 20
1.2
 30
0.0
 11
39.9
 21
1.2
 31
0.0
  0
LINE
  5
9C
330
1F
100
AcDbEntity
  8
0
  6
Continuous
 62
     7
370
    15
100
AcDbLine
 10
24.9
 20
0.0
 30
0.0
 11
24.9
 21
1.2
 31
0.0
  0
LINE
  5
9D
330
1F
100
AcDbEntity
  8
0
  6
Continuous
 62
     7
370
    15
100
AcDbLine
 10
24.9
 20
0.0
 30
0.0
 11
39.9
 21
0.0
 31
0.0
  0
LINE
  5
9E
330
1F
100
AcDbEntity
  8
0
  6
Continuous
 62
     7
370
    15
100
AcDbLine
 10
39.9
 20
0.0
 30
0.0
 11
39.9
 21
1.2
 31
0.0
  0
LINE
  5
9F
330
1F
100
AcDbEntity
  8
0
  6
Continuous
 62
     7
370
    15
100
AcDbLine
 10
99.2275324675
 20
6.0
 30
0.0
 11
85.0145454545
 21
6.0
 31
0.0
  0
LINE
  5
A0
330
1F
100
AcDbEntity
  8
0
  6
Continuous
 62
     7
370
    15
100
AcDbLine
 10
99.2275324675
 20
9.8493506494
 30
0.0
 11
99.2275324675
 21
6.0
 31
0.0
  0
LINE
  5
A1
330
1F
100
AcDbEntity
  8
0
  6
Continuous
 62
     7
370
    15
100
AcDbLine
 10
88.5677922078
 20
9.8493506494
 30
0.0
 11
99.2275324675
 21
9.8493506494
 31
0.0
  0
LINE
  5
A2
330
1F
100
AcDbEntity
  8
0
  6
Continuous
 62
     7
370
    15
100
AcDbLine
 10
88.5677922078
 20
16.0675324675
 30
0.0
 11
88.5677922078
 21
9.8493506494
 31
0.0
  0
LINE
  5
A3
330
1F
100
AcDbEntity
  8
0
  6
Continuous
 62
     7
370
    15
100
AcDbLine
 10
98.3392207792
 20
16.0675324675
 30
0.0
 11
88.5677922078
 21
16.0675324675
 31
0.0
  0
LINE
  5
A4
330
1F
100
AcDbEntity
  8
0
  6
Continuous
 62
     7
370
    15
100
AcDbLine
 10
98.3392207792
 20
19.6207792208
 30
0.0
 11
98.3392207792
 21
16.0675324675
 31
0.0
  0
LINE
  5
A5
330
1F
100
AcDbEntity
  8
0
  6
Continuous
 62
     7
370
    15
100
AcDbLine
 10
88.5677922078
 20
19.6207792208
 30
0.0
 11
98.3392207792
 21
19.6207792208
 31
0.0
  0
LINE
  5
A6
330
1F
100
AcDbEntity
  8
0
  6
Continuous
 62
     7
370
    15
100
AcDbLine
 10
88.5677922078
 20
24.9506493506
 30
0.0
 11
88.5677922078
 21
19.6207792208
 31
0.0
  0
LINE
  5
A7
330
1F
100
AcDbEntity
  8
0
  6
Continuous
 62
     7
370
    15
100
AcDbLine
 10
98.9314285714
 20
24.9506493506
 30
0.0
 11
88.5677922078
 21
24.9506493506
 31
0.0
  0
LINE
  5
A8
330
1F
100
AcDbEntity
  8
0
  6
Continuous
 62
     7
370
    15
100
AcDbLine
 10
98.9314285714
 20
28.8
 30
0.0
 11
98.9314285714
 21
24.9506493506
 31
0.0
  0
LINE
  5
A9
330
1F
100
AcDbEntity
  8
0
  6
Continuous
 62
     7
370
    15
100
AcDbLine
 10
85.0145454545
 20
28.8
 30
0.0
 11
98.9314285714
 21
28.8
 31
0.0
  0
LINE
  5
AA
330
1F
100
AcDbEntity
  8
0
  6
Continuous
 62
     7
370
    15
100
AcDbLine
 10
85.0145454545
 20
6.0
 30
0.0
 11
85.0145454545
 21
28.8
 31
0.0
  0
LINE
  5
AB
330
1F
100
AcDbEntity
  8
0
  6
Continuous
 62
     7
370
    15
100
AcDbLine
 10
76.9910551948
 20
6.0
 30
0.0
 11
73.5581006494
 21
6.0
 31
0.0
  0
LINE
  5
AC
330
1F
100
AcDbEntity
  8
0
  6
Continuous
 62
     7
370
    15
100
AcDbLine
 10
84.1114285714
 20
28.8
 30
0.0
 11
76.9910551948
 21
6.0
 31
0.0
  0
LINE
  5
AD
330
1F
100
AcDbEntity
  8
0
  6
Continuous
 62
     7
370
    15
100
AcDbLine
 10
80.4147564935
 20
28.8
 30
0.0
 11
84.1114285714
 21
28.8
 31
0.0
  0
LINE
  5
AE
330
1F
100
AcDbEntity
  8
0
  6
Continuous
 62
     7
370
    15
100
AcDbLine
 10
75.3763636364
 20
11.9267045455
 30
0.0
 11
80.4147564935
 21
28.8
 31
0.0
  0
LINE
  5
AF
330
1F
100
AcDbEntity
  8
0
  6
Continuous
 62
     7
370
    15
100
AcDbLine
 10
70.0418668831
 20
28.8
 30
0.0
 11
75.3763636364
 21
11.9267045455
 31
0.0
  0
LINE
  5
B0
330
1F
100
AcDbEntity
  8
0
  6
Continuous
 62
     7
370
    15
100
AcDbLine
 10
66.3451948052
 20
28.8
 30
0.0
 11
70.0418668831
 21
28.8
 31
0.0
  0
LINE
  5
B1
330
1F
100
AcDbEntity
  8
0
  6
Continuous
 62
     7
370
    15
100
AcDbLine
 10
73.5581006494
 20
6.0
 30
0.0
 11
66.3451948052
 21
28.8
 31
0.0
  0
LINE
  5
B2
330
1F
100
AcDbEntity
  8
0
  6
Continuous
 62
     7
370
    15
100
AcDbLine
 10
65.4420779221
 20
6.0
 30
0.0
 11
61.8888311688
 21
6.0
 31
0.0
  0
LINE
  5
B3
330
1F
100
AcDbEntity
  8
0
  6
Continuous
 62
     7
370
    15
100
AcDbLine
 10
65.4420779221
 20
28.8
 30
0.0
 11
65.4420779221
 21
6.0
 31
0.0
  0
LINE
  5
B4
330
1F
100
AcDbEntity
  8
0
  6
Continuous
 62
     7
370
    15
100
AcDbLine
 10
61.8888311688
 20
28.8
 30
0.0
 11
65.4420779221
 21
28.8
 31
0.0
  0
LINE
  5
B5
330
1F
100
AcDbEntity
  8
0
  6
Continuous
 62
     7
370
    15
100
AcDbLine
 10
61.8888311688
 20
6.0
 30
0.0
 11
61.8888311688
 21
28.8
 31
0.0
  0
LINE
  5
B6
330
1F
100
AcDbEntity
  8
0
  6
Continuous
 62
     7
370
    15
100
AcDbLine
 10
60.0974025974
 20
6.0
 30
0.0
 11
46.7727272727
 21
6.0
 31
0.0
  0
LINE
  5
B7
330
1F
100
AcDbEntity
  8
0
  6
Continuous
 62
     7
370
    15
100
AcDbLine
 10
60.0974025974
 20
9.8493506494
 30
0.0
 11
60.0974025974
 21
6.0
 31
0.0
  0
LINE
  5
B8
330
1F
100
AcDbEntity
  8
0
  6
Continuous
 62
     7
370
    15
100
AcDbLine
 10
50.325974026
 20
9.8493506494
 30
0.0
 11
60.0974025974
 21
9.8493506494
 31
0.0
  0
LINE
  5
B9
330
1F
100
AcDbEntity
  8
0
  6
Continuous
 62
     7
370
    15
100
AcDbLine
 10
50.325974026
 20
28.8
 30
0.0
 11
50.325974026
 21
9.8493506494
 31
0.0
  0
LINE
  5
BA
330
1F
100
AcDbEntity
  8
0
  6
Continuous
 62
     7
370
    15
100
AcDbLine
 10
46.7727272727
 20
28.8
 30
0.0
 11
50.325974026
 21
28.8
 31
0.0
  0
LINE
  5
BB
330
1F
100
AcDbEntity
  8
0
  6
Continuous
 62
     7
370
    15
100
AcDbLine
 10
46.7727272727
 20
6.0
 30
0.0
 11
46.7727272727
 21
28.8
 31
0.0
  0
LINE
  5
BC
330
1F
100
AcDbEntity
  8
0
  6
Continuous
 62
     7
370
    15
100
AcDbLine
 10
124.1657142857
 20
-24.0
 30
0.0
 11
120.6124675325
 21
-24.0
 31
0.0
  0
LINE
  5
BD
330
1F
100
AcDbEntity
  8
0
  6
Continuous
 62
     7
370
    15
100
AcDbLine
 10
124.1657142857
 20
-9.1300324675
 30
0.0
 11
124.1657142857
 21
-24.0
 31
0.0
  0
LINE
  5
BE
330
1F
100
AcDbEntity
  8
0
  6
Continuous
 62
     7
370
    15
100
AcDbLine
 10
131.8736688312
 20
-24.0
 30
0.0
 11
124.1657142857
 21
-9.1300324675
 31
0.0
  0
LINE
  5
BF
330
1F
100
AcDbEntity
  8
0
  6
Continuous
 62
     7
370
    15
100
AcDbLine
 10
135.7137662338
 20
-24.0
 30
0.0
 11
131.8736688312
 21
-24.0
 31
0.0
  0
LINE
  5
C0
330
1F
100
AcDbEntity
  8
0
  6
Continuous
 62
     7
370
    15
100
AcDbLine
 10
135.7137662338
 20
-1.2
 30
0.0
 11
135.7137662338
 21
-24.0
 31
0.0
  0
LINE
  5
C1
330
1F
100
AcDbEntity
  8
0
  6
Continuous
 62
     7
370
    15
100
AcDbLine
 10
132.1605194805
 20
-1.2
 30
0.0
 11
135.7137662338
 21
-1.2
 31
0.0
  0
LINE
  5
C2
330
1F
100
AcDbEntity
  8
0
  6
Continuous
 62
     7
370
    15
100
AcDbLine
 10
132.1605194805
 20
-16.4262175325
 30
0.0
 11
132.1605194805
 21
-1.2
 31
0.0
  0
LINE
  5
C3
330
1F
100
AcDbEntity
  8
0
  6
Continuous
 62
     7
370
    15
100
AcDbLine
 10
124.3230194805
 20
-1.2
 30
0.0
 11
132.1605194805
 21
-16.4262175325
 31
0.0
  0
LINE
  5
C4
330
1F
100
AcDbEntity
  8
0
  6
Continuous
 62
     7
370
    15
100
AcDbLine
 10
120.6124675325
 20
-1.2
 30
0.0
 11
124.3230194805
 21
-1.2
 31
0.0
  0
LINE
  5
C5
330
1F
100
AcDbEntity
  8
0
  6
Continuous
 62
     7
370
    15
100
AcDbLine
 10
120.6124675325
 20
-24.0
 30
0.0
 11
120.6124675325
 21
-1.2
 31
0.0
  0
SPLINE
  5
C6
330
1F
100
AcDbEntity
  8
0
  6
Continuous
 62
     7
370
    15
100
AcDbSpline
210
0.0
220
0.0
230
1.0
 70
     8
 71
     3
 72
    15
 73
    11
 74
     0
 42
0.000000001
 43
0.00000001
 40
0.0
 40
0.0
 40
0.0
 40
0.0
 40
0.1117739370308193
 40
0.2247677795535318
 40
0.3410374842882959
 40
0.4612773393906974
 40
0.5860211589800135
 40
0.7171253373232555
 40
0.8548932940008851
 40
1.0
 40
1.0
 40
1.0
 40
1.0
 10
102.8314285714286
 20
-21.50162337662338
 30
0.0
 10
102.6170939552986
 20
-21.22679060492602
 30
0.0
 10
102.1860854659429
 20
-20.67412552499846
 30
0.0
 10
101.6450753991013
 20
-19.75629859858371
 30
0.0
 10
101.186326429083
 20
-18.76718418190577
 30
0.0
 10
100.8129372864741
 20
-17.7037082022224
 30
0.0
 10
100.520665697191
 20
-16.56757594688496
 30
0.0
 10
100.3159986575601
 20
-15.35734729840662
 30
0.0
 10
100.1887385236045
 20
-14.0724520807965
 30
0.0
 10
100.1740356599472
 20
-13.19097270467239
 30
0.0
 10
100.1664935064935
 20
-12.7387987012987
 30
0.0
  0
SPLINE
  5
C7
330
1F
100
AcDbEntity
  8
0
  6
Continuous
 62
     7
370
    15
100
AcDbSpline
210
0.0
220
0.0
230
1.0
 70
     8
 71
     3
 72
    15
 73
    11
 74
     0
 42
0.000000001
 43
0.00000001
 40
0.0
 40
0.0
 40
0.0
 40
0.0
 40
0.1368705848747401
 40
0.2672512037781404
 40
0.3929102002493728
 40
0.5147910772240308
 40
0.6345241729696133
 40
0.7543604987858805
 40
0.8755291118581506
 40
1.0
 40
1.0
 40
1.0
 40
1.0
 10
109.2115422077922
 20
-24.29610389610389
 30
0.0
 10
108.8825172776221
 20
-24.28946550907158
 30
0.0
 10
108.2400687285678
 20
-24.2765035061171
 30
0.0
 10
107.3045377660119
 20
-24.13567655581514
 30
0.0
 10
106.4207764895135
 20
-23.92228423739026
 30
0.0
 10
105.591395139354
 20
-23.61523861498794
 30
0.0
 10
104.8161843895363
 20
-23.21923712842636
 30
0.0
 10
104.0973434553326
 20
-22.73281113730786
 30
0.0
 10
103.4204499182274
 20
-22.16912003237041
 30
0.0
 10
103.0295208495138
 20
-21.72610748720758
 30
0.0
 10
102.8314285714286
 20
-21.50162337662338
 30
0.0
  0
SPLINE
  5
C8
330
1F
100
AcDbEntity
  8
0
  6
Continuous
 62
     7
370
    15
100
AcDbSpline
210
0.0
220
0.0
230
1.0
 70
     8
 71
     3
 72
    15
 73
    11
 74
     0
 42
0.000000001
 43
0.00000001
 40
0.0
 40
0.0
 40
0.0
 40
0.0
 40
0.1251476863150135
 40
0.2468646389301883
 40
0.3672578456361203
 40
0.4871881685990936
 40
0.608893229235311
 40
0.7342917987690817
 40
0.8641600163843002
 40
0.9999999999999999
 40
0.9999999999999999
 40
0.9999999999999999
 40
0.9999999999999999
 10
115.5638961038961
 20
-21.47386363636363
 30
0.0
 10
115.3653365560462
 20
-21.69931695478766
 30
0.0
 10
114.9736606687053
 20
-22.14404313141282
 30
0.0
 10
114.3039312213407
 20
-22.72025719121417
 30
0.0
 10
113.5848904892104
 20
-23.21041173401682
 30
0.0
 10
112.808710485337
 20
-23.6040840198791
 30
0.0
 10
111.984266796916
 20
-23.91734497617512
 30
0.0
 10
111.1057602165265
 20
-24.138602795444
 30
0.0
 10
110.174682090535
 20
-24.26855907287608
 30
0.0
 10
109.5373633939629
 20
-24.28678574083096
 30
0.0
 10
109.2115422077922
 20
-24.29610389610389
 30
0.0
  0
SPLINE
  5
C9
330
1F
100
AcDbEntity
  8
0
  6
Continuous
 62
     7
370
    15
100
AcDbSpline
210
0.0
220
0.0
230
1.0
 70
     8
 71
     3
 72
    15
 73
    11
 74
     0
 42
0.000000001
 43
0.00000001
 40
0.0
 40
0.0
 40
0.0
 40
0.0
 40
0.1459040512872512
 40
0.2845425193035749
 40
0.41608682055309
 40
0.5413098577583337
 40
0.6611069461242941
 40
0.7769441114072102
 40
0.8894958512352391
 40
1.0
 40
1.0
 40
1.0
 40
1.0
 10
118.2288311688312
 20
-12.6
 30
0.0
 10
118.2212535673523
 20
-13.05987450986134
 30
0.0
 10
118.2064757061753
 20
-13.95672316104664
 30
0.0
 10
118.0797147363934
 20
-15.26323740212975
 30
0.0
 10
117.8743208639563
 20
-16.49329908704067
 30
0.0
 10
117.5839318086437
 20
-17.64537447621453
 30
0.0
 10
117.2089530056298
 20
-18.72077643845286
 30
0.0
 10
116.7499707864654
 20
-19.71880889132477
 30
0.0
 10
116.2119005110505
 20
-20.64490768614536
 30
0.0
 10
115.7785716267066
 20
-21.19924119547404
 30
0.0
 10
115.5638961038961
 20
-21.47386363636363
 30
0.0
  0
SPLINE
  5
CA
330
1F
100
AcDbEntity
  8
0
  6
Continuous
 62
     7
370
    15
100
AcDbSpline
210
0.0
220
0.0
230
1.0
 70
     8
 71
     3
 72
    23
 73
    19
 74
     0
 42
0.000000001
 43
0.00000001
 40
0.0
 40
0.0
 40
0.0
 40
0.0
 40
0.0587428489480867
 40
0.1152998172066825
 40
0.1702758942048211
 40
0.2244463680442008
 40
0.2785775685080285
 40
0.3332772403307575
 40
0.3892348615605535
 40
0.4472997583846929
 40
0.507145990531336
 40
0.5681992528521583
 40
0.6316744732541281
 40
0.6977177720899221
 40
0.7673230909783099
 40
0.8405637798865908
 40
0.9179332929139236
 40
1.0
 40
1.0
 40
1.0
 40
1.0
 10
109.1976623376623
 20
-0.9038961038961026
 30
0.0
 10
109.5236459703628
 20
-0.9119489600777853
 30
0.0
 10
110.1634830558258
 20
-0.9277550175361199
 30
0.0
 10
111.0985387709441
 20
-1.07687844546324
 30
0.0
 10
111.9889050710642
 20
-1.310540728217446
 30
0.0
 10
112.8325239893705
 20
-1.646144173273796
 30
0.0
 10
113.6278397965281
 20
-2.08006560467689
 30
0.0
 10
114.3769232542468
 20
-2.606793528178585
 30
0.0
 10
115.0800474546427
 20
-3.227053241256289
 30
0.0
 10
115.7307229712289
 20
-3.940823456885565
 30
0.0
 10
116.3246825010717
 20
-4.738582705639982
 30
0.0
 10
116.8337775844294
 20
-5.627621668029044
 30
0.0
 10
117.2708151347687
 20
-6.591801142994166
 30
0.0
 10
117.6190403835433
 20
-7.641376425103317
 30
0.0
 10
117.8985855655783
 20
-8.766973435477144
 30
0.0
 10
118.0860741925271
 20
-9.974800888535585
 30
0.0
 10
118.2120953805072
 20
-11.26022723282201
 30
0.0
 10
118.2231440699038
 20
-12.14472295420636
 30
0.0
 10
118.2288311688312
 20
-12.6
 30
0.0
  0
SPLINE
  5
CB
330
1F
100
AcDbEntity
  8
0
  6
Continuous
 62
     7
370
    15
100
AcDbSpline
210
0.0
220
0.0
230
1.0
 70
     8
 71
     3
 72
    31
 73
    27
 74
     0
 42
0.000000001
 43
0.00000001
 40
0.0
 40
0.0
 40
0.0
 40
0.0
 40
0.0588753026131731
 40
0.1150866209923274
 40
0.1687330657377243
 40
0.2202424834682985
 40
0.2693877585665311
 40
0.3164319990717059
 40
0.3616641114334841
 40
0.405188699654186
 40
0.4471384817666346
 40
0.4876709865411959
 40
0.526428561677769
 40
0.5643333934574775
 40
0.6010013949412811
 40
0.6367901302360108
 40
0.6717283758245001
 40
0.7063915855967057
 40
0.7410646166755347
 40
0.7757551009895104
 40
0.8107960634143825
 40
0.8465520139976866
 40
0.8832509545966706
 40
0.9208752879690244
 40
0.9598246828481484
 40
1.0
 40
1.0
 40
1.0
 40
1.0
 10
100.1664935064935
 20
-12.7387987012987
 30
0.0
 10
100.1698325374898
 20
-12.40867743367598
 30
0.0
 10
100.1763595153174
 20
-11.76337219494076
 30
0.0
 10
100.2334883097303
 20
-10.81875698395104
 30
0.0
 10
100.3226991634336
 20
-9.918026379523043
 30
0.0
 10
100.4597111095
 20
-9.063544886192885
 30
0.0
 10
100.6211946439008
 20
-8.25081906984471
 30
0.0
 10
100.8337745685362
 20
-7.486505863630363
 30
0.0
 10
101.0689456468636
 20
-6.761718002690848
 30
0.0
 10
101.3557527725116
 20
-6.086630727217935
 30
0.0
 10
101.6639756486353
 20
-5.450545478299324
 30
0.0
 10
102.0021931857395
 20
-4.860397800517756
 30
0.0
 10
102.3595092892712
 20
-4.308459389908775
 30
0.0
 10
102.743545929831
 20
-3.801601973874573
 30
0.0
 10
103.1463852586826
 20
-3.331461374179054
 30
0.0
 10
103.5713699296141
 20
-2.9038083199341
 30
0.0
 10
104.0245379646895
 20
-2.523725693106647
 30
0.0
 10
104.4967113034448
 20
-2.178031531767705
 30
0.0
 10
104.997614284568
 20
-1.877621032816183
 30
0.0
 10
105.5231342067294
 20
-1.61870045438684
 30
0.0
 10
106.0709341580053
 20
-1.394255659121113
 30
0.0
 10
106.6467896765938
 20
-1.213848028453511
 30
0.0
 10
107.2491368648169
 20
-1.077156367565651
 30
0.0
 10
107.8761725910726
 20
-0.9741855251529321
 30
0.0
 10
108.5286658344287
 20
-0.9132634964452244
 30
0.0
 10
108.9723719762518
 20
-0.907050654394746
 30
0.0
 10
109.1976623376623
 20
-0.9038961038961026
 30
0.0
  0
SPLINE
  5
CC
330
1F
100
AcDbEntity
  8
0
  6
Continuous
 62
     7
370
    15
100
AcDbSpline
210
0.0
220
0.0
230
1.0
 70
     8
 71
     3
 72
    23
 73
    19
 74
     0
 42
0.000000001
 43
0.00000001
 40
0.0
 40
0.0
 40
0.0
 40
0.0
 40
0.0886017364929877
 40
0.1714438381958283
 40
0.2492807049149604
 40
0.3225034697672406
 40
0.3914517597545233
 40
0.4562132026637616
 40
0.5181898519726955
 40
0.5777213557872035
 40
0.6349973833007103
 40
0.6894623177587264
 40
0.7420060184470114
 40
0.7936321414075956
 40
0.8441066074590479
 40
0.8951366053394173
 40
0.9465977308894391
 40
1.0
 40
1.0
 40
1.0
 40
1.0
 10
103.7197402597403
 20
-12.58612012987013
 30
0.0
 10
103.7234980572227
 20
-12.90397181823494
 30
0.0
 10
103.7307693732154
 20
-13.51901296288113
 30
0.0
 10
103.8059074479125
 20
-14.410725418176
 30
0.0
 10
103.9283433587299
 20
-15.24132654873992
 30
0.0
 10
104.1041738011036
 20
-16.01145575562596
 30
0.0
 10
104.3246449335911
 20
-16.72090583657929
 30
0.0
 10
104.5914878063413
 20
-17.37151521650486
 30
0.0
 10
104.9173511137556
 20
-17.95648798226644
 30
0.0
 10
105.2882977909414
 20
-18.48098244648618
 30
0.0
 10
105.6948475219576
 20
-18.94301626473353
 30
0.0
 10
106.127719555951
 20
-19.34423652454049
 30
0.0
 10
106.5839450320523
 20
-19.6862314950922
 30
0.0
 10
107.0653924568658
 20
-19.96433248138043
 30
0.0
 10
107.5718354182497
 20
-20.18062558381331
 30
0.0
 10
108.1004004556282
 20
-20.33156590247865
 30
0.0
 10
108.6528378482902
 20
-20.42829618749079
 30
0.0
 10
109.0291542342711
 20
-20.44052543446448
 30
0.0
 10
109.2207954545455
 20
-20.44675324675324
 30
0.0
  0
SPLINE
  5
CD
330
1F
100
AcDbEntity
  8
0
  6
Continuous
 62
     7
370
    15
100
AcDbSpline
210
0.0
220
0.0
230
1.0
 70
     8
 71
     3
 72
    23
 73
    19
 74
     0
 42
0.000000001
 43
0.00000001
 40
0.0
 40
0.0
 40
0.0
 40
0.0
 40
0.0553457250259347
 40
0.1083295895014064
 40
0.1603143124988385
 40
0.2112496683840757
 40
0.2622840941029478
 40
0.3141485474385823
 40
0.3675399064136387
 40
0.4230976213473193
 40
0.4808899012941172
 40
0.5416718107928951
 40
0.6060577293955214
 40
0.6741186247132837
 40
0.74775345551765
 40
0.8261214565689773
 40
0.9099740991477167
 40
1.0
 40
1.0
 40
1.0
 40
1.0
 10
109.2207954545455
 20
-4.753246753246752
 30
0.0
 10
109.0214060896815
 20
-4.757356654545024
 30
0.0
 10
108.6311362352973
 20
-4.765401068459999
 30
0.0
 10
108.0611468197585
 20
-4.864787695022431
 30
0.0
 10
107.5180224635073
 20
-5.008844506488496
 30
0.0
 10
107.0041532819807
 20
-5.220150621959111
 30
0.0
 10
106.5196199866536
 20
-5.490389573375595
 30
0.0
 10
106.0635737486567
 20
-5.821760373311028
 30
0.0
 10
105.6362524174322
 20
-6.213693962455419
 30
0.0
 10
105.2380003034183
 20
-6.663699941697497
 30
0.0
 10
104.8720708723753
 20
-7.174404109939352
 30
0.0
 10
104.5650312998494
 20
-7.758642903786686
 30
0.0
 10
104.3010712796754
 20
-8.402934216483661
 30
0.0
 10
104.0885763527421
 20
-9.114566549401685
 30
0.0
 10
103.9251167385661
 20
-9.890146893479955
 30
0.0
 10
103.8065198245478
 20
-10.73099170300102
 30
0.0
 10
103.7304620135123
 20
-11.63626303553549
 30
0.0
 10
103.723397778827
 20
-12.26209473942764
 30
0.0
 10
103.7197402597403
 20
-12.58612012987013
 30
0.0
  0
SPLINE
  5
CE
330
1F
100
AcDbEntity
  8
0
  6
Continuous
 62
     7
370
    15
100
AcDbSpline
210
0.0
220
0.0
230
1.0
 70
     8
 71
     3
 72
    23
 73
    19
 74
     0
 42
0.000000001
 43
0.00000001
 40
0.0
 40
0.0
 40
0.0
 40
0.0
 40
0.0895476473046574
 40
0.1736974725732936
 40
0.2519221741948037
 40
0.3248676419709213
 40
0.3931337359620664
 40
0.4575414594529379
 40
0.5181152209678741
 40
0.5755818386752315
 40
0.6310343594151482
 40
0.684300345176066
 40
0.7362869077017735
 40
0.7874082216519565
 40
0.8386446512077869
 40
0.8906851510426851
 40
0.9441509046652053
 40
1.0
 40
1.0
 40
1.0
 40
1.0
 10
114.6755844155844
 20
-12.50746753246753
 30
0.0
 10
114.6712197031219
 20
-12.18812826239537
 30
0.0
 10
114.6627533776956
 20
-11.56869910066406
 30
0.0
 10
114.5956918344489
 20
-10.67198389742927
 30
0.0
 10
114.4733561018859
 20
-9.841368539291063
 30
0.0
 10
114.3167122602626
 20
-9.07382078298715
 30
0.0
 10
114.1014817050398
 20
-8.37195446682332
 30
0.0
 10
113.8472674765755
 20
-7.73008154704589
 30
0.0
 10
113.534088612119
 20
-7.158114942740891
 30
0.0
 10
113.1814359663515
 20
-6.648213781665997
 30
0.0
 10
112.7866049519677
 20
-6.204499473025233
 30
0.0
 10
112.3629305642586
 20
-5.817150561802951
 30
0.0
 10
111.9127478679795
 20
-5.486242473616517
 30
0.0
 10
111.4329602032658
 20
-5.213184572380642
 30
0.0
 10
110.9189996385762
 20
-5.011232410730774
 30
0.0
 10
110.379290681996
 20
-4.863603207421603
 30
0.0
 10
109.8103706388022
 20
-4.765647976663694
 30
0.0
 10
109.4201564035329
 20
-4.757440144921003
 30
0.0
 10
109.2207954545455
 20
-4.753246753246753
 30
0.0
  0
SPLINE
  5
CF
330
1F
100
AcDbEntity
  8
0
  6
Continuous
 62
     7
370
    15
100
AcDbSpline
210
0.0
220
0.0
230
1.0
 70
     8
 71
     3
 72
    23
 73
    19
 74
     0
 42
0.000000001
 43
0.00000001
 40
0.0
 40
0.0
 40
0.0
 40
0.0
 40
0.0535042292505111
 40
0.1050047247180691
 40
0.1557244177822954
 40
0.2058919571130226
 40
0.2566206518088873
 40
0.3085027423347396
 40
0.3620325672059453
 40
0.4180759751807518
 40
0.4769995720342082
 40
0.5381888208380334
 40
0.6031847276633968
 40
0.6724045448787411
 40
0.7463397955173751
 40
0.825332849315089
 40
0.9098008287204434
 40
1.0
 40
1.0
 40
1.0
 40
1.0
 10
109.2207954545455
 20
-20.44675324675324
 30
0.0
 10
109.4138819727511
 20
-20.43995826916496
 30
0.0
 10
109.7928239176208
 20
-20.42662278594955
 30
0.0
 10
110.3494820238439
 20
-20.3382936061237
 30
0.0
 10
110.8790511018608
 20
-20.18496483457601
 30
0.0
 10
111.3830856990024
 20
-19.96922523448351
 30
0.0
 10
111.8639238265744
 20
-19.69630471509229
 30
0.0
 10
112.3120766228985
 20
-19.35276489819875
 30
0.0
 10
112.7424744172327
 20
-18.95866734385069
 30
0.0
 10
113.1401107018277
 20
-18.49698146517996
 30
0.0
 10
113.5065075434599
 20
-17.97608212420823
 30
0.0
 10
113.8234766921131
 20
-17.38615439375384
 30
0.0
 10
114.0844551680828
 20
-16.72979988857557
 30
0.0
 10
114.3008416251001
 20
-16.00973564812572
 30
0.0
 10
114.4720996606626
 20
-15.22567545455623
 30
0.0
 10
114.5882513565873
 20
-14.37634288204088
 30
0.0
 10
114.6648674529814
 20
-13.46350264076124
 30
0.0
 10
114.6719347966436
 20
-12.83304148178156
 30
0.0
 10
114.6755844155844
 20
-12.50746753246753
 30
0.0
  0
LINE
  5
D0
330
1F
100
AcDbEntity
  8
0
  6
Continuous
 62
     7
370
    15
100
AcDbLine
 10
98.078961039
 20
-24.0
 30
0.0
 11
94.5257142857
 21
-24.0
 31
0.0
  0
LINE
  5
D1
330
1F
100
AcDbEntity
  8
0
  6
Continuous
 62
     7
370
    15
100
AcDbLine
 10
98.078961039
 20
-1.2
 30
0.0
 11
98.078961039
 21
-24.0
 31
0.0
  0
LINE
  5
D2
330
1F
100
AcDbEntity
  8
0
  6
Continuous
 62
     7
370
    15
100
AcDbLine
 10
94.5257142857
 20
-1.2
 30
0.0
 11
98.078961039
 21
-1.2
 31
0.0
  0
LINE
  5
D3
330
1F
100
AcDbEntity
  8
0
  6
Continuous
 62
     7
370
    15
100
AcDbLine
 10
94.5257142857
 20
-24.0
 30
0.0
 11
94.5257142857
 21
-1.2
 31
0.0
  0
LINE
  5
D4
330
1F
100
AcDbEntity
  8
0
  6
Continuous
 62
     7
370
    15
100
AcDbLine
 10
86.8122077922
 20
-24.0
 30
0.0
 11
83.258961039
 21
-24.0
 31
0.0
  0
LINE
  5
D5
330
1F
100
AcDbEntity
  8
0
  6
Continuous
 62
     7
370
    15
100
AcDbLine
 10
86.8122077922
 20
-5.0493506494
 30
0.0
 11
86.8122077922
 21
-24.0
 31
0.0
  0
LINE
  5
D6
330
1F
100
AcDbEntity
  8
0
  6
Continuous
 62
     7
370
    15
100
AcDbLine
 10
92.1420779221
 20
-5.0493506494
 30
0.0
 11
86.8122077922
 21
-5.0493506494
 31
0.0
  0
LINE
  5
D7
330
1F
100
AcDbEntity
  8
0
  6
Continuous
 62
     7
370
    15
100
AcDbLine
 10
92.1420779221
 20
-1.2
 30
0.0
 11
92.1420779221
 21
-5.0493506494
 31
0.0
  0
LINE
  5
D8
330
1F
100
AcDbEntity
  8
0
  6
Continuous
 62
     7
370
    15
100
AcDbLine
 10
77.9290909091
 20
-1.2
 30
0.0
 11
92.1420779221
 21
-1.2
 31
0.0
  0
LINE
  5
D9
330
1F
100
AcDbEntity
  8
0
  6
Continuous
 62
     7
370
    15
100
AcDbLine
 10
77.9290909091
 20
-5.0493506494
 30
0.0
 11
77.9290909091
 21
-1.2
 31
0.0
  0
LINE
  5
DA
330
1F
100
AcDbEntity
  8
0
  6
Continuous
 62
     7
370
    15
100
AcDbLine
 10
83.258961039
 20
-5.0493506494
 30
0.0
 11
77.9290909091
 21
-5.0493506494
 31
0.0
  0
LINE
  5
DB
330
1F
100
AcDbEntity
  8
0
  6
Continuous
 62
     7
370
    15
100
AcDbLine
 10
83.258961039
 20
-24.0
 30
0.0
 11
83.258961039
 21
-5.0493506494
 31
0.0
  0
LINE
  5
DC
330
1F
100
AcDbEntity
  8
0
  6
Continuous
 62
     7
370
    15
100
AcDbLine
 10
76.4337662338
 20
-24.0
 30
0.0
 11
72.8805194805
 21
-24.0
 31
0.0
  0
LINE
  5
DD
330
1F
100
AcDbEntity
  8
0
  6
Continuous
 62
     7
370
    15
100
AcDbLine
 10
76.4337662338
 20
-1.2
 30
0.0
 11
76.4337662338
 21
-24.0
 31
0.0
  0
LINE
  5
DE
330
1F
100
AcDbEntity
  8
0
  6
Continuous
 62
     7
370
    15
100
AcDbLine
 10
72.8805194805
 20
-1.2
 30
0.0
 11
76.4337662338
 21
-1.2
 31
0.0
  0
LINE
  5
DF
330
1F
100
AcDbEntity
  8
0
  6
Continuous
 62
     7
370
    15
100
AcDbLine
 10
72.8805194805
 20
-24.0
 30
0.0
 11
72.8805194805
 21
-1.2
 31
0.0
  0
LINE
  5
E0
330
1F
100
AcDbEntity
  8
0
  6
Continuous
 62
     7
370
    15
100
AcDbLine
 10
58.3566233766
 20
-24.0
 30
0.0
 11
54.8033766234
 21
-24.0
 31
0.0
  0
LINE
  5
E1
330
1F
100
AcDbEntity
  8
0
  6
Continuous
 62
     7
370
    15
100
AcDbLine
 10
58.3566233766
 20
-9.1300324675
 30
0.0
 11
58.3566233766
 21
-24.0
 31
0.0
  0
LINE
  5
E2
330
1F
100
AcDbEntity
  8
0
  6
Continuous
 62
     7
370
    15
100
AcDbLine
 10
66.0645779221
 20
-24.0
 30
0.0
 11
58.3566233766
 21
-9.1300324675
 31
0.0
  0
LINE
  5
E3
330
1F
100
AcDbEntity
  8
0
  6
Continuous
 62
     7
370
    15
100
AcDbLine
 10
69.9046753247
 20
-24.0
 30
0.0
 11
66.0645779221
 21
-24.0
 31
0.0
  0
LINE
  5
E4
330
1F
100
AcDbEntity
  8
0
  6
Continuous
 62
     7
370
    15
100
AcDbLine
 10
69.9046753247
 20
-1.2
 30
0.0
 11
69.9046753247
 21
-24.0
 31
0.0
  0
LINE
  5
E5
330
1F
100
AcDbEntity
  8
0
  6
Continuous
 62
     7
370
    15
100
AcDbLine
 10
66.3514285714
 20
-1.2
 30
0.0
 11
69.9046753247
 21
-1.2
 31
0.0
  0
LINE
  5
E6
330
1F
100
AcDbEntity
  8
0
  6
Continuous
 62
     7
370
    15
100
AcDbLine
 10
66.3514285714
 20
-16.4262175325
 30
0.0
 11
66.3514285714
 21
-1.2
 31
0.0
  0
LINE
  5
E7
330
1F
100
AcDbEntity
  8
0
  6
Continuous
 62
     7
370
    15
100
AcDbLine
 10
58.5139285714
 20
-1.2
 30
0.0
 11
66.3514285714
 21
-16.4262175325
 31
0.0
  0
LINE
  5
E8
330
1F
100
AcDbEntity
  8
0
  6
Continuous
 62
     7
370
    15
100
AcDbLine
 10
54.8033766234
 20
-1.2
 30
0.0
 11
58.5139285714
 21
-1.2
 31
0.0
  0
LINE
  5
E9
330
1F
100
AcDbEntity
  8
0
  6
Continuous
 62
     7
370
    15
100
AcDbLine
 10
54.8033766234
 20
-24.0
 30
0.0
 11
54.8033766234
 21
-1.2
 31
0.0
  0
LINE
  5
EA
330
1F
100
AcDbEntity
  8
0
  6
Continuous
 62
     7
370
    15
100
AcDbLine
 10
36.4301298701
 20
-13.3125
 30
0.0
 11
36.4301298701
 21
-1.2
 31
0.0
  0
SPLINE
  5
EB
330
1F
100
AcDbEntity
  8
0
  6
Continuous
 62
     7
370
    15
100
AcDbSpline
210
0.0
220
0.0
230
1.0
 70
     8
 71
     3
 72
    31
 73
    27
 74
     0
 42
0.000000001
 43
0.00000001
 40
0.0
 40
0.0
 40
0.0
 40
0.0
 40
0.0458865364397761
 40
0.088918101284533
 40
0.1298404308520223
 40
0.1687670757867126
 40
0.2052112156765019
 40
0.2400840967455106
 40
0.2732542024818942
 40
0.3049854909212006
 40
0.3358954976374729
 40
0.3663915312190282
 40
0.3965583151495887
 40
0.4267651992663882
 40
0.4569935437435684
 40
0.4879133394096649
 40
0.5188233461259373
 40
0.5509486589594964
 40
0.5860045361225135
 40
0.6268009554147319
 40
0.673694898937349
 40
0.7264705435670054
 40
0.7854921742739122
 40
0.8505890749167139
 40
0.9220723352368689
 40
1.0
 40
1.0
 40
1.0
 40
1.0
 10
44.20748376623376
 20
-24.29610389610389
 30
0.0
 10
43.96684070807314
 20
-24.29189815401467
 30
0.0
 10
43.50052693764881
 20
-24.283748342979
 30
0.0
 10
42.82056856798413
 20
-24.23955609105148
 30
0.0
 10
42.18107371336733
 20
-24.15590945834545
 30
0.0
 10
41.58185922097223
 20
-24.04070984069111
 30
0.0
 10
41.02061833052826
 20
-23.89934545652938
 30
0.0
 10
40.50267854472131
 20
-23.71840505101081
 30
0.0
 10
40.02313875293058
 20
-23.50691913761418
 30
0.0
 10
39.58619136129959
 20
-23.2576515074313
 30
0.0
 10
39.17906045226484
 20
-22.98620770361068
 30
0.0
 10
38.81243278437792
 20
-22.67527118293668
 30
0.0
 10
38.45885263587862
 20
-22.35490242067412
 30
0.0
 10
38.14740036845041
 20
-21.99491493777939
 30
0.0
 10
37.85610819513165
 20
-21.61405700084443
 30
0.0
 10
37.59996947056592
 20
-21.20391731113796
 30
0.0
 10
37.37106118324073
 20
-20.76721346759711
 30
0.0
 10
37.16162266979528
 20
-20.29675405916747
 30
0.0
 10
36.9812362113931
 20
-19.75881109148194
 30
0.0
 10
36.83965314274867
 20
-19.13013614575651
 30
0.0
 10
36.71068444486882
 20
-18.40467961263629
 30
0.0
 10
36.6047025036602
 20
-17.57873524513112
 30
0.0
 10
36.53144423907565
 20
-16.65371276091814
 30
0.0
 10
36.46843298188164
 20
-15.62965531282439
 30
0.0
 10
36.44016233545545
 20
-14.50477842416453
 30
0.0
 10
36.43356882255395
 20
-13.72119204566359
 30
0.0
 10
36.43012987012987
 20
-13.3125
 30
0.0
  0
SPLINE
  5
EC
330
1F
100
AcDbEntity
  8
0
  6
Continuous
 62
     7
370
    15
100
AcDbSpline
210
0.0
220
0.0
230
1.0
 70
     8
 71
     3
 72
    31
 73
    27
 74
     0
 42
0.000000001
 43
0.00000001
 40
0.0
 40
0.0
 40
0.0
 40
0.0
 40
0.0708090525116623
 40
0.1368722500124292
 40
0.1976102304890283
 40
0.2533583805943138
 40
0.3041309871254638
 40
0.3499634095578896
 40
0.3906566036620417
 40
0.4268327118182259
 40
0.4599749919053138
 40
0.4927412534041237
 40
0.5249393770739647
 40
0.556728056961545
 40
0.5890373201610248
 40
0.6214778112346443
 40
0.6547400517061993
 40
0.6888444742250991
 40
0.7236667199703344
 40
0.7589309702061582
 40
0.795341198803855
 40
0.8328801092881478
 40
0.8719928835352254
 40
0.9126392869524098
 40
0.9553581573382289
 40
0.9999999999999999
 40
0.9999999999999999
 40
0.9999999999999999
 40
0.9999999999999999
 10
51.53142857142858
 20
-13.12743506493507
 30
0.0
 10
51.52946329713637
 20
-13.49449526903306
 30
0.0
 10
51.5256644676827
 20
-14.20401409809293
 30
0.0
 10
51.50206842303348
 20
-15.22814797700732
 30
0.0
 10
51.46759291433734
 20
-16.17388464586023
 30
0.0
 10
51.41159838295957
 20
-17.03922963149492
 30
0.0
 10
51.34271980239271
 20
-17.82599576533063
 30
0.0
 10
51.26327738459042
 20
-18.53352556063139
 30
0.0
 10
51.15956708542125
 20
-19.1611949750742
 30
0.0
 10
51.04766884318513
 20
-19.72080003603466
 30
0.0
 10
50.89947832684994
 20
-20.22938067809068
 30
0.0
 10
50.72187181990547
 20
-20.70665205582938
 30
0.0
 10
50.49796539683377
 20
-21.15642754266138
 30
0.0
 10
50.23601141507881
 20
-21.58206231008175
 30
0.0
 10
49.93616632920897
 20
-21.98358886488389
 30
0.0
 10
49.59552900284154
 20
-22.36159203552919
 30
0.0
 10
49.21430896756319
 20
-22.71224266619097
 30
0.0
 10
48.79888200586586
 20
-23.04177774303799
 30
0.0
 10
48.34625947881914
 20
-23.3380845195774
 30
0.0
 10
47.85595432192454
 20
-23.59362655461894
 30
0.0
 10
47.33211305958363
 20
-23.8099073134557
 30
0.0
 10
46.7743886612698
 20
-23.99207843973805
 30
0.0
 10
46.18130937561079
 20
-24.12971882320615
 30
0.0
 10
45.55319464957613
 20
-24.22473441111409
 30
0.0
 10
44.89195371093484
 20
-24.28738146654956
 30
0.0
 10
44.43896412973015
 20
-24.29315406436995
 30
0.0
 10
44.20748376623376
 20
-24.29610389610389
 30
0.0
  0
LINE
  5
ED
330
1F
100
AcDbEntity
  8
0
  6
Continuous
 62
     7
370
    15
100
AcDbLine
 10
51.5314285714
 20
-1.2
 30
0.0
 11
51.5314285714
 21
-13.1274350649
 31
0.0
  0
LINE
  5
EE
330
1F
100
AcDbEntity
  8
0
  6
Continuous
 62
     7
370
    15
100
AcDbLine
 10
47.9781818182
 20
-1.2
 30
0.0
 11
51.5314285714
 21
-1.2
 31
0.0
  0
LINE
  5
EF
330
1F
100
AcDbEntity
  8
0
  6
Continuous
 62
     7
370
    15
100
AcDbLine
 10
47.9781818182
 20
-13.8075487013
 30
0.0
 11
47.9781818182
 21
-1.2
 31
0.0
  0
SPLINE
  5
F0
330
1F
100
AcDbEntity
  8
0
  6
Continuous
 62
     7
370
    15
100
AcDbSpline
210
0.0
220
0.0
230
1.0
 70
     8
 71
     3
 72
    23
 73
    19
 74
     0
 42
0.000000001
 43
0.00000001
 40
0.0
 40
0.0
 40
0.0
 40
0.0
 40
0.075637056189642
 40
0.1450382625783323
 40
0.2088345453362924
 40
0.269692100518963
 40
0.3279459516544801
 40
0.3846990919954189
 40
0.4421085223955175
 40
0.5008016860936846
 40
0.5350560230943405
 40
0.5770678038815088
 40
0.6271137255242045
 40
0.6852802360565214
 40
0.7516220460124373
 40
0.8261758700272329
 40
0.9089561855285964
 40
1.0
 40
1.0
 40
1.0
 40
1.0
 10
44.1149512987013
 20
-20.44675324675325
 30
0.0
 10
44.34063631424917
 20
-20.44039952369103
 30
0.0
 10
44.77339988536111
 20
-20.42821590629142
 30
0.0
 10
45.38821632539654
 20
-20.3156293503888
 30
0.0
 10
45.94039092990577
 20
-20.13638307641314
 30
0.0
 10
46.42563508089277
 20
-19.88113043228851
 30
0.0
 10
46.84182146035499
 20
-19.55823091941893
 30
0.0
 10
47.1916078120998
 20
-19.17789034219032
 30
0.0
 10
47.46569899479342
 20
-18.73817538970911
 30
0.0
 10
47.63569991303567
 20
-18.32106212671405
 30
0.0
 10
47.73862280668732
 20
-17.9315237731145
 30
0.0
 10
47.79913355507455
 20
-17.55946375765415
 30
0.0
 10
47.85411372775152
 20
-17.11496743544111
 30
0.0
 10
47.89910389204655
 20
-16.59638624275097
 30
0.0
 10
47.93506984753296
 20
-16.00398071493982
 30
0.0
 10
47.96352107592737
 20
-15.33766898374789
 30
0.0
 10
47.97543304753501
 20
-14.59720364111322
 30
0.0
 10
47.97723697540246
 20
-14.07897904741994
 30
0.0
 10
47.97818181818182
 20
-13.8075487012987
 30
0.0
  0
SPLINE
  5
F1
330
1F
100
AcDbEntity
  8
0
  6
Continuous
 62
     7
370
    15
100
AcDbSpline
210
0.0
220
0.0
230
1.0
 70
     8
 71
     3
 72
    15
 73
    11
 74
     0
 42
0.000000001
 43
0.00000001
 40
0.0
 40
0.0
 40
0.0
 40
0.0
 40
0.1315345824909755
 40
0.2538547910688105
 40
0.3707440852226079
 40
0.4866734439900063
 40
0.6044828529884728
 40
0.7267161595290538
 40
0.8572960924838205
 40
1.0
 40
1.0
 40
1.0
 40
1.0
 10
40.13605519480519
 20
-17.2913961038961
 30
0.0
 10
40.18750001665241
 20
-17.53158485250558
 30
0.0
 10
40.28678580335794
 20
-17.99513644054156
 30
0.0
 10
40.57378709970676
 20
-18.62825530885659
 30
0.0
 10
40.94011847124612
 20
-19.18340119618356
 30
0.0
 10
41.41224188646957
 20
-19.64129875301845
 30
0.0
 10
41.96923384131619
 20
-20.00941481943307
 30
0.0
 10
42.61653796450361
 20
-20.25967882189909
 30
0.0
 10
43.33885438950324
 20
-20.42310308464975
 30
0.0
 10
43.84871254025302
 20
-20.43864009783987
 30
0.0
 10
44.11495129870131
 20
-20.44675324675325
 30
0.0
  0
SPLINE
  5
F2
330
1F
100
AcDbEntity
  8
0
  6
Continuous
 62
     7
370
    15
100
AcDbSpline
210
0.0
220
0.0
230
1.0
 70
     8
 71
     3
 72
    15
 73
    11
 74
     0
 42
0.000000001
 43
0.00000001
 40
0.0
 40
0.0
 40
0.0
 40
0.0
 40
0.1836607204055282
 40
0.3500655463863175
 40
0.4992553171642283
 40
0.6324268740690185
 40
0.7496854252764747
 40
0.8497991169915875
 40
0.9327134337024889
 40
1.0
 40
1.0
 40
1.0
 40
1.0
 10
39.98337662337662
 20
-13.54383116883117
 30
0.0
 10
39.98520316109666
 20
-13.77361492803754
 30
0.0
 10
39.98868462367368
 20
-14.21159304899705
 30
0.0
 10
39.98923020067395
 20
-14.83630808641116
 30
0.0
 10
40.00701258074644
 20
-15.39755497397253
 30
0.0
 10
40.01708054133172
 20
-15.89746698972767
 30
0.0
 10
40.04030749781362
 20
-16.33556707963159
 30
0.0
 10
40.07007517342023
 20
-16.71002114597002
 30
0.0
 10
40.09261408712045
 20
-17.02264566387255
 30
0.0
 10
40.12261532514102
 20
-17.20824972299992
 30
0.0
 10
40.13605519480519
 20
-17.2913961038961
 30
0.0
  0
LINE
  5
F3
330
1F
100
AcDbEntity
  8
0
  6
Continuous
 62
     7
370
    15
100
AcDbLine
 10
39.9833766234
 20
-1.2
 30
0.0
 11
39.9833766234
 21
-13.5438311688
 31
0.0
  0
LINE
  5
F4
330
1F
100
AcDbEntity
  8
0
  6
Continuous
 62
     7
370
    15
100
AcDbLine
 10
36.4301298701
 20
-1.2
 30
0.0
 11
39.9833766234
 21
-1.2
 31
0.0
  0
LINE
  5
F5
330
1F
100
AcDbEntity
  8
0
  6
Continuous
 62
     7
370
    15
100
AcDbLine
 10
19.2412987013
 20
-24.0
 30
0.0
 11
15.6880519481
 21
-24.0
 31
0.0
  0
LINE
  5
F6
330
1F
100
AcDbEntity
  8
0
  6
Continuous
 62
     7
370
    15
100
AcDbLine
 10
19.2412987013
 20
-5.757224026
 30
0.0
 11
19.2412987013
 21
-24.0
 31
0.0
  0
LINE
  5
F7
330
1F
100
AcDbEntity
  8
0
  6
Continuous
 62
     7
370
    15
100
AcDbLine
 10
22.8778246753
 20
-24.0
 30
0.0
 11
19.2412987013
 21
-5.757224026
 31
0.0
  0
LINE
  5
F8
330
1F
100
AcDbEntity
  8
0
  6
Continuous
 62
     7
370
    15
100
AcDbLine
 10
26.4912175325
 20
-24.0
 30
0.0
 11
22.8778246753
 21
-24.0
 31
0.0
  0
LINE
  5
F9
330
1F
100
AcDbEntity
  8
0
  6
Continuous
 62
     7
370
    15
100
AcDbLine
 10
30.1971428571
 20
-5.757224026
 30
0.0
 11
26.4912175325
 21
-24.0
 31
0.0
  0
LINE
  5
FA
330
1F
100
AcDbEntity
  8
0
  6
Continuous
 62
     7
370
    15
100
AcDbLine
 10
30.1971428571
 20
-24.0
 30
0.0
 11
30.1971428571
 21
-5.757224026
 31
0.0
  0
LINE
  5
FB
330
1F
100
AcDbEntity
  8
0
  6
Continuous
 62
     7
370
    15
100
AcDbLine
 10
33.7503896104
 20
-24.0
 30
0.0
 11
30.1971428571
 21
-24.0
 31
0.0
  0
LINE
  5
FC
330
1F
100
AcDbEntity
  8
0
  6
Continuous
 62
     7
370
    15
100
AcDbLine
 10
33.7503896104
 20
-1.2
 30
0.0
 11
33.7503896104
 21
-24.0
 31
0.0
  0
LINE
  5
FD
330
1F
100
AcDbEntity
  8
0
  6
Continuous
 62
     7
370
    15
100
AcDbLine
 10
27.9300974026
 20
-1.2
 30
0.0
 11
33.7503896104
 21
-1.2
 31
0.0
  0
LINE
  5
FE
330
1F
100
AcDbEntity
  8
0
  6
Continuous
 62
     7
370
    15
100
AcDbLine
 10
24.7192207792
 20
-17.0508116883
 30
0.0
 11
27.9300974026
 21
-1.2
 31
0.0
  0
LINE
  5
FF
330
1F
100
AcDbEntity
  8
0
  6
Continuous
 62
     7
370
    15
100
AcDbLine
 10
21.5684902597
 20
-1.2
 30
0.0
 11
24.7192207792
 21
-17.0508116883
 31
0.0
  0
LINE
  5
100
330
1F
100
AcDbEntity
  8
0
  6
Continuous
 62
     7
370
    15
100
AcDbLine
 10
15.6880519481
 20
-1.2
 30
0.0
 11
21.5684902597
 21
-1.2
 31
0.0
  0
LINE
  5
101
330
1F
100
AcDbEntity
  8
0
  6
Continuous
 62
     7
370
    15
100
AcDbLine
 10
15.6880519481
 20
-24.0
 30
0.0
 11
15.6880519481
 21
-1.2
 31
0.0
  0
LINE
  5
102
330
1F
100
AcDbEntity
  8
0
  6
Continuous
 62
     7
370
    15
100
AcDbLine
 10
-1.7968831169
 20
-24.0
 30
0.0
 11
-5.3501298701
 21
-24.0
 31
0.0
  0
LINE
  5
103
330
1F
100
AcDbEntity
  8
0
  6
Continuous
 62
     7
370
    15
100
AcDbLine
 10
-1.7968831169
 20
-5.757224026
 30
0.0
 11
-1.7968831169
 21
-24.0
 31
0.0
  0
LINE
  5
104
330
1F
100
AcDbEntity
  8
0
  6
Continuous
 62
     7
370
    15
100
AcDbLine
 10
1.8396428571
 20
-24.0
 30
0.0
 11
-1.7968831169
 21
-5.757224026
 31
0.0
  0
LINE
  5
105
330
1F
100
AcDbEntity
  8
0
  6
Continuous
 62
     7
370
    15
100
AcDbLine
 10
5.4530357143
 20
-24.0
 30
0.0
 11
1.8396428571
 21
-24.0
 31
0.0
  0
LINE
  5
106
330
1F
100
AcDbEntity
  8
0
  6
Continuous
 62
     7
370
    15
100
AcDbLine
 10
9.158961039
 20
-5.757224026
 30
0.0
 11
5.4530357143
 21
-24.0
 31
0.0
  0
LINE
  5
107
330
1F
100
AcDbEntity
  8
0
  6
Continuous
 62
     7
370
    15
100
AcDbLine
 10
9.158961039
 20
-24.0
 30
0.0
 11
9.158961039
 21
-5.757224026
 31
0.0
  0
LINE
  5
108
330
1F
100
AcDbEntity
  8
0
  6
Continuous
 62
     7
370
    15
100
AcDbLine
 10
12.7122077922
 20
-24.0
 30
0.0
 11
9.158961039
 21
-24.0
 31
0.0
  0
LINE
  5
109
330
1F
100
AcDbEntity
  8
0
  6
Continuous
 62
     7
370
    15
100
AcDbLine
 10
12.7122077922
 20
-1.2
 30
0.0
 11
12.7122077922
 21
-24.0
 31
0.0
  0
LINE
  5
10A
330
1F
100
AcDbEntity
  8
0
  6
Continuous
 62
     7
370
    15
100
AcDbLine
 10
6.8919155844
 20
-1.2
 30
0.0
 11
12.7122077922
 21
-1.2
 31
0.0
  0
LINE
  5
10B
330
1F
100
AcDbEntity
  8
0
  6
Continuous
 62
     7
370
    15
100
AcDbLine
 10
3.681038961
 20
-17.0508116883
 30
0.0
 11
6.8919155844
 21
-1.2
 31
0.0
  0
LINE
  5
10C
330
1F
100
AcDbEntity
  8
0
  6
Continuous
 62
     7
370
    15
100
AcDbLine
 10
0.5303084416
 20
-1.2
 30
0.0
 11
3.681038961
 21
-17.0508116883
 31
0.0
  0
LINE
  5
10D
330
1F
100
AcDbEntity
  8
0
  6
Continuous
 62
     7
370
    15
100
AcDbLine
 10
-5.3501298701
 20
-1.2
 30
0.0
 11
0.5303084416
 21
-1.2
 31
0.0
  0
LINE
  5
10E
330
1F
100
AcDbEntity
  8
0
  6
Continuous
 62
     7
370
    15
100
AcDbLine
 10
-5.3501298701
 20
-24.0
 30
0.0
 11
-5.3501298701
 21
-1.2
 31
0.0
  0
LINE
  5
10F
330
1F
100
AcDbEntity
  8
0
  6
Continuous
 62
     7
370
    15
100
AcDbLine
 10
-14.5071428571
 20
-1.2
 30
0.0
 11
-6.8454545455
 21
-24.0
 31
0.0
  0
LINE
  5
110
330
1F
100
AcDbEntity
  8
0
  6
Continuous
 62
     7
370
    15
100
AcDbLine
 10
-17.8521915584
 20
-1.2
 30
0.0
 11
-14.5071428571
 21
-1.2
 31
0.0
  0
LINE
  5
111
330
1F
100
AcDbEntity
  8
0
  6
Continuous
 62
     7
370
    15
100
AcDbLine
 10
-25.5
 20
-24.0
 30
0.0
 11
-17.8521915584
 21
-1.2
 31
0.0
  0
LINE
  5
112
330
1F
100
AcDbEntity
  8
0
  6
Continuous
 62
     7
370
    15
100
AcDbLine
 10
-21.7801948052
 20
-24.0
 30
0.0
 11
-25.5
 21
-24.0
 31
0.0
  0
LINE
  5
113
330
1F
100
AcDbEntity
  8
0
  6
Continuous
 62
     7
370
    15
100
AcDbLine
 10
-20.1608766234
 20
-18.9662337662
 30
0.0
 11
-21.7801948052
 21
-24.0
 31
0.0
  0
LINE
  5
114
330
1F
100
AcDbEntity
  8
0
  6
Continuous
 62
     7
370
    15
100
AcDbLine
 10
-12.1799512987
 20
-18.9662337662
 30
0.0
 11
-20.1608766234
 21
-18.9662337662
 31
0.0
  0
LINE
  5
115
330
1F
100
AcDbEntity
  8
0
  6
Continuous
 62
     7
370
    15
100
AcDbLine
 10
-10.5560064935
 20
-24.0
 30
0.0
 11
-12.1799512987
 21
-18.9662337662
 31
0.0
  0
LINE
  5
116
330
1F
100
AcDbEntity
  8
0
  6
Continuous
 62
     7
370
    15
100
AcDbLine
 10
-6.8454545455
 20
-24.0
 30
0.0
 11
-10.5560064935
 21
-24.0
 31
0.0
  0
LINE
  5
117
330
1F
100
AcDbEntity
  8
0
  6
Continuous
 62
     7
370
    15
100
AcDbLine
 10
-18.9255681818
 20
-15.1168831169
 30
0.0
 11
-13.4198863636
 21
-15.1168831169
 31
0.0
  0
LINE
  5
118
330
1F
100
AcDbEntity
  8
0
  6
Continuous
 62
     7
370
    15
100
AcDbLine
 10
-16.1727272727
 20
-6.5715097403
 30
0.0
 11
-18.9255681818
 21
-15.1168831169
 31
0.0
  0
LINE
  5
119
330
1F
100
AcDbEntity
  8
0
  6
Continuous
 62
     7
370
    15
100
AcDbLine
 10
-13.4198863636
 20
-15.1168831169
 30
0.0
 11
-16.1727272727
 21
-6.5715097403
 31
0.0
  0
ENDSEC
  0
SECTION
  2
OBJECTS
  0
DICTIONARY
  5
C
330
0
100
AcDbDictionary
281
     1
  3
ACAD_GROUP
350
D
  3
ACAD_LAYOUT
350
1A
  3
ACAD_MLINESTYLE
350
17
  3
ACAD_PLOTSETTINGS
350
19
  3
ACAD_PLOTSTYLENAME
350
E
  3
ACAD_SCALELIST
350
47
  0
DICTIONARY
  5
D
102
{ACAD_REACTORS
330
C
102
}
330
C
100
AcDbDictionary
281
     1
  0
DICTIONARY
  5
1A
102
{ACAD_REACTORS
330
C
102
}
330
C
100
AcDbDictionary
281
     1
  3
Layout1
350
1E
  3
Layout2
350
26
  3
Model
350
22
  0
DICTIONARY
  5
17
102
{ACAD_REACTORS
330
C
102
}
330
C
100
AcDbDictionary
281
     1
  3
Standard
350
18
  0
DICTIONARY
  5
19
102
{ACAD_REACTORS
330
C
102
}
330
C
100
AcDbDictionary
281
     1
  0
ACDBDICTIONARYWDFLT
  5
E
102
{ACAD_REACTORS
330
C
102
}
330
C
100
AcDbDictionary
281
     1
  3
Normal
350
F
100
AcDbDictionaryWithDefault
340
F
  0
DICTIONARY
  5
47
102
{ACAD_REACTORS
330
C
102
}
330
C
100
AcDbDictionary
281
     1
  3
A0
350
48
  3
A1
350
49
  3
A2
350
4A
  3
A3
350
4B
  3
A4
350
4C
  3
A5
350
4D
  3
A6
350
4E
  3
A7
350
4F
  3
A8
350
50
  3
A9
350
51
  3
B0
350
52
  3
B1
350
53
  3
B2
350
54
  3
B3
350
55
  3
B4
350
56
  3
B5
350
57
  3
B6
350
58
  3
B7
350
59
  3
B8
350
5A
  3
B9
350
5B
  3
C0
350
5C
  3
C1
350
5D
  3
C2
350
5E
  3
C3
350
5F
  3
C4
350
60
  3
C5
350
61
  3
C6
350
62
  3
C7
350
63
  3
C8
350
64
  3
C9
350
65
  3
D0
350
66
  3
D1
350
67
  3
D2
350
68
  0
LAYOUT
  5
1E
102
{ACAD_REACTORS
330
1A
102
}
330
1A
100
AcDbPlotSettings
  1

  2
none_device
  4

  6

 40
0.0
 41
0.0
 42
0.0
 43
0.0
 44
0.0
 45
0.0
 46
0.0
 47
0.0
 48
0.0
 49
0.0
140
0.0
141
0.0
142
1.0
143
1.0
 70
   688
 72
     1
 73
     0
 74
     5
  7

 75
    16
147
1.0
148
0.0
149
0.0
100
AcDbLayout
  1
Layout1
 70
     1
 71
     1
 10
0.0
 20
0.0
 11
420.0
 21
297.0
 12
0.0
 22
0.0
 32
0.0
 14
1.0000000000E+20
 24
1.0000000000E+20
 34
1.0000000000E+20
 15
-1.0000000000E+20
 25
-1.0000000000E+20
 35
-1.0000000000E+20
146
0.0
 13
0.0
 23
0.0
 33
0.0
 16
1.0
 26
0.0
 36
0.0
 17
0.0
 27
1.0
 37
0.0
 76
     0
330
1B
  0
LAYOUT
  5
26
102
{ACAD_REACTORS
330
1A
102
}
330
1A
100
AcDbPlotSettings
  1

  2
none_device
  4

  6

 40
0.0
 41
0.0
 42
0.0
 43
0.0
 44
0.0
 45
0.0
 46
0.0
 47
0.0
 48
0.0
 49
0.0
140
0.0
141
0.0
142
1.0
143
1.0
 70
   688
 72
     1
 73
     0
 74
     5
  7

 75
    16
147
1.0
148
0.0
149
0.0
100
AcDbLayout
  1
Layout2
 70
     1
 71
     2
 10
0.0
 20
0.0
 11
0.0
 21
0.0
 12
0.0
 22
0.0
 32
0.0
 14
0.0
 24
0.0
 34
0.0
 15
0.0
 25
0.0
 35
0.0
146
0.0
 13
0.0
 23
0.0
 33
0.0
 16
1.0
 26
0.0
 36
0.0
 17
0.0
 27
1.0
 37
0.0
 76
     0
330
23
  0
LAYOUT
  5
22
102
{ACAD_REACTORS
330
1A
102
}
330
1A
100
AcDbPlotSettings
  1

  2
none_device
  4
ANSI_A_(11.00_x_8.50_Inches)
  6

 40
6.35
 41
19.05
 42
6.35000508
 43
19.05000254
 44
279.4
 45
215.9
 46
38.7991730017
 47
76.8004666092
 48
0.0
 49
0.0
140
0.0
141
0.0
142
0.0675500626
143
1.0
 70
  1696
 72
     0
 73
     0
 74
     0
  7

 75
     0
147
0.0179189148
148
-1300.4909072572
149
0.0
100
AcDbLayout
  1
Model
 70
     1
 71
     0
 10
0.0
 20
0.0
 11
420.0
 21
297.0
 12
0.0
 22
0.0
 32
0.0
 14
-25.5
 24
-24.2961038961
 34
0.0
 15
135.7137662338
 25
38.4
 35
0.0
146
0.0
 13
0.0
 23
0.0
 33
0.0
 16
1.0
 26
0.0
 36
0.0
 17
0.0
 27
1.0
 37
0.0
 76
     0
330
1F
331
29
  0
MLINESTYLE
  5
18
102
{ACAD_REACTORS
330
17
102
}
330
17
100
AcDbMlineStyle
  2
Standard
 70
     0
  3

 62
   256
 51
90.0
 52
90.0
 71
     2
 49
0.5
 62
   256
  6
BYLAYER
 49
-0.5
 62
   256
  6
BYLAYER
  0
ACDBPLACEHOLDER
  5
F
102
{ACAD_REACTORS
330
E
102
}
330
E
  0
SCALE
  5
48
102
{ACAD_REACTORS
330
47
102
}
330
47
100
AcDbScale
 70
     0
300
1:1
140
1.0
141
1.0
290
     1
  0
SCALE
  5
49
102
{ACAD_REACTORS
330
47
102
}
330
47
100
AcDbScale
 70
     0
300
1:2
140
1.0
141
2.0
290
     0
  0
SCALE
  5
4A
102
{ACAD_REACTORS
330
47
102
}
330
47
100
AcDbScale
 70
     0
300
1:4
140
1.0
141
4.0
290
     0
  0
SCALE
  5
4B
102
{ACAD_REACTORS
330
47
102
}
330
47
100
AcDbScale
 70
     0
300
1:5
140
1.0
141
5.0
290
     0
  0
SCALE
  5
4C
102
{ACAD_REACTORS
330
47
102
}
330
47
100
AcDbScale
 70
     0
300
1:8
140
1.0
141
8.0
290
     0
  0
SCALE
  5
4D
102
{ACAD_REACTORS
330
47
102
}
330
47
100
AcDbScale
 70
     0
300
1:10
140
1.0
141
10.0
290
     0
  0
SCALE
  5
4E
102
{ACAD_REACTORS
330
47
102
}
330
47
100
AcDbScale
 70
     0
300
1:16
140
1.0
141
16.0
290
     0
  0
SCALE
  5
4F
102
{ACAD_REACTORS
330
47
102
}
330
47
100
AcDbScale
 70
     0
300
1:20
140
1.0
141
20.0
290
     0
  0
SCALE
  5
50
102
{ACAD_REACTORS
330
47
102
}
330
47
100
AcDbScale
 70
     0
300
1:30
140
1.0
141
30.0
290
     0
  0
SCALE
  5
51
102
{ACAD_REACTORS
330
47
102
}
330
47
100
AcDbScale
 70
     0
300
1:40
140
1.0
141
40.0
290
     0
  0
SCALE
  5
52
102
{ACAD_REACTORS
330
47
102
}
330
47
100
AcDbScale
 70
     0
300
1:50
140
1.0
141
50.0
290
     0
  0
SCALE
  5
53
102
{ACAD_REACTORS
330
47
102
}
330
47
100
AcDbScale
 70
     0
300
1:100
140
1.0
141
100.0
290
     0
  0
SCALE
  5
54
102
{ACAD_REACTORS
330
47
102
}
330
47
100
AcDbScale
 70
     0
300
2:1
140
2.0
141
1.0
290
     0
  0
SCALE
  5
55
102
{ACAD_REACTORS
330
47
102
}
330
47
100
AcDbScale
 70
     0
300
4:1
140
4.0
141
1.0
290
     0
  0
SCALE
  5
56
102
{ACAD_REACTORS
330
47
102
}
330
47
100
AcDbScale
 70
     0
300
8:1
140
8.0
141
1.0
290
     0
  0
SCALE
  5
57
102
{ACAD_REACTORS
330
47
102
}
330
47
100
AcDbScale
 70
     0
300
10:1
140
10.0
141
1.0
290
     0
  0
SCALE
  5
58
102
{ACAD_REACTORS
330
47
102
}
330
47
100
AcDbScale
 70
     0
300
100:1
140
100.0
141
1.0
290
     0
  0
SCALE
  5
59
102
{ACAD_REACTORS
330
47
102
}
330
47
100
AcDbScale
 70
     0
300
1/128" = 1'-0"
140
0.0078125
141
12.0
290
     0
  0
SCALE
  5
5A
102
{ACAD_REACTORS
330
47
102
}
330
47
100
AcDbScale
 70
     0
300
1/64" = 1'-0"
140
0.015625
141
12.0
290
     0
  0
SCALE
  5
5B
102
{ACAD_REACTORS
330
47
102
}
330
47
100
AcDbScale
 70
     0
300
1/32" = 1'-0"
140
0.03125
141
12.0
290
     0
  0
SCALE
  5
5C
102
{ACAD_REACTORS
330
47
102
}
330
47
100
AcDbScale
 70
     0
300
1/16" = 1'-0"
140
0.0625
141
12.0
290
     0
  0
SCALE
  5
5D
102
{ACAD_REACTORS
330
47
102
}
330
47
100
AcDbScale
 70
     0
300
3/32" = 1'-0"
140
0.09375
141
12.0
290
     0
  0
SCALE
  5
5E
102
{ACAD_REACTORS
330
47
102
}
330
47
100
AcDbScale
 70
     0
300
1/8" = 1'-0"
140
0.125
141
12.0
290
     0
  0
SCALE
  5
5F
102
{ACAD_REACTORS
330
47
102
}
330
47
100
AcDbScale
 70
     0
300
3/16" = 1'-0"
140
0.1875
141
12.0
290
     0
  0
SCALE
  5
60
102
{ACAD_REACTORS
330
47
102
}
330
47
100
AcDbScale
 70
     0
300
1/4" = 1'-0"
140
0.25
141
12.0
290
     0
  0
SCALE
  5
61
102
{ACAD_REACTORS
330
47
102
}
330
47
100
AcDbScale
 70
     0
300
3/8" = 1'-0"
140
0.375
141
12.0
290
     0
  0
SCALE
  5
62
102
{ACAD_REACTORS
330
47
102
}
330
47
100
AcDbScale
 70
     0
300
1/2" = 1'-0"
140
0.5
141
12.0
290
     0
  0
SCALE
  5
63
102
{ACAD_REACTORS
330
47
102
}
330
47
100
AcDbScale
 70
     0
300
3/4" = 1'-0"
140
0.75
141
12.0
290
     0
  0
SCALE
  5
64
102
{ACAD_REACTORS
330
47
102
}
330
47
100
AcDbScale
 70
     0
300
1" = 1'-0"
140
1.0
141
12.0
290
     0
  0
SCALE
  5
65
102
{ACAD_REACTORS
330
47
102
}
330
47
100
AcDbScale
 70
     0
300
1-1/2" = 1'-0"
140
1.5
141
12.0
290
     0
  0
SCALE
  5
66
102
{ACAD_REACTORS
330
47
102
}
330
47
100
AcDbScale
 70
     0
300
3" = 1'-0"
140
3.0
141
12.0
290
     0
  0
SCALE
  5
67
102
{ACAD_REACTORS
330
47
102
}
330
47
100
AcDbScale
 70
     0
300
6" = 1'-0"
140
6.0
141
12.0
290
     0
  0
SCALE
  5
68
102
{ACAD_REACTORS
330
47
102
}
330
47
100
AcDbScale
 70
     0
300
1'-0" = 1'-0"
140
12.0
141
12.0
290
     0
  0
ENDSEC
  0
EOF
